<svg xmlns="http://www.w3.org/2000/svg" xmlns:xlink="http://www.w3.org/1999/xlink" width="817.152" height="700.334" viewBox="0 0 817.152 700.334">
  <defs>
    <style>
      .cls-1 {
        fill: #f2f2f2;
      }

      .cls-2 {
        fill: #3f3d56;
      }

      .cls-3 {
        fill: #ffb8b8;
      }

      .cls-4 {
        fill: #2f2e41;
      }

      .cls-13, .cls-5 {
        opacity: 0.2;
      }

      .cls-5 {
        isolation: isolate;
      }

      .cls-6 {
        fill: #fbbdbd;
      }

      .cls-7 {
        fill: #8e6989;
      }

      .cls-8 {
        fill: #b2b2b2;
      }

      .cls-13, .cls-9 {
        fill: none;
      }

      .cls-10 {
        fill: #531f1f;
      }

      .cls-11 {
        fill: url(#linear-gradient);
      }

      .cls-12 {
        fill: #f55f44;
      }

      .cls-13 {
        stroke: #000;
        stroke-miterlimit: 10;
      }

      .cls-14 {
        fill: #eea769;
      }

      .cls-15 {
        fill: #ff6584;
      }

      .cls-16 {
        filter: url(#Trazado_34);
      }
    </style>
    <filter id="Trazado_34" x="0" y="547.491" width="817.152" height="152.843" filterUnits="userSpaceOnUse">
      <feOffset dy="10" input="SourceAlpha"/>
      <feGaussianBlur stdDeviation="25" result="blur"/>
      <feFlood flood-opacity="0.161"/>
      <feComposite operator="in" in2="blur"/>
      <feComposite in="SourceGraphic"/>
    </filter>
    <linearGradient id="linear-gradient" x1="3.716" y1="3.003" x2="3.716" y2="2.003" gradientUnits="objectBoundingBox">
      <stop offset="0" stop-color="gray" stop-opacity="0.251"/>
      <stop offset="0.535" stop-color="gray" stop-opacity="0.122"/>
      <stop offset="1" stop-color="gray" stop-opacity="0.102"/>
    </linearGradient>
  </defs>
  <g id="Grupo_7" data-name="Grupo 7" transform="translate(-1054 -230)">
    <path id="Trazado_26" data-name="Trazado 26" class="cls-1" d="M1462.745,761.669l-291.858,61.149H849.223l-6.554-13.477-14.315-36.268L771.434,628.91l-28.566-72.377-8.592-21.755-6.213-15.745-13.849-35.08-22.429-56.793,48.98-19.334,46.779-18.471,33.624-13.273L1244.52,208.934Z" transform="translate(385.215 21.066)"/>
    <g id="Grupo_6" data-name="Grupo 6" transform="translate(930 -137)">
      <g class="cls-16" transform="matrix(1, 0, 0, 1, 124, 367)">
        <path id="Trazado_34-2" data-name="Trazado 34" class="cls-2" d="M865.35,721.566H201.681a1.451,1.451,0,1,1,0-2.843H865.35a1.451,1.451,0,1,1,0,2.843Z" transform="translate(-124.94 -106.23)"/>
      </g>
      <g id="Grupo_4" data-name="Grupo 4" transform="translate(20 -15)">
        <path id="Trazado_29" data-name="Trazado 29" class="cls-3" d="M154.721,540.8h-15.4l-7.329-59.42h22.737Z" transform="translate(418.862 447.312)"/>
        <path id="Trazado_30" data-name="Trazado 30" class="cls-4" d="M132.881,525.162h29.71v18.706H114.176a18.706,18.706,0,0,1,18.705-18.706Z" transform="translate(412.293 453.545)"/>
        <path id="Trazado_31" data-name="Trazado 31" class="cls-3" d="M256.721,540.8h-15.4l-7.33-59.42h22.737Z" transform="translate(425.031 442.312)"/>
        <path id="Trazado_32" data-name="Trazado 32" class="cls-4" d="M234.881,525.162h29.71v18.706H216.176a18.706,18.706,0,0,1,18.705-18.706Z" transform="translate(418.461 453.545)"/>
        <path id="Trazado_33" data-name="Trazado 33" class="cls-4" d="M387.588,720.159a6.074,6.074,0,0,1-.643-.034L336.4,713.383h-.367s-.832-.025-1.953-.144a10.944,10.944,0,0,1-2.275-.324,2.83,2.83,0,0,1-1.991-3.351l44.842-214.445a5.929,5.929,0,0,1,4.455-4.388l51.479-14.35a5.934,5.934,0,0,1,5.716,1.862c33.1,37.333,44.992,120.108,63.886,224.42.288,1.591.956,3.994,0,5.3a7.552,7.552,0,0,1-4.359,2.99l-50.123,9.175c-3.019.393-8.745-3.743-9.4-6.715L425.353,600.151a4.584,4.584,0,0,0-8.969.1L393.352,715.419A5.863,5.863,0,0,1,387.588,720.159Z" transform="translate(200.608 215.722)"/>
        <g id="Grupo_2" data-name="Grupo 2" transform="translate(-426.691 161.758)">
          <path id="Trazado_29-2" data-name="Trazado 29" class="cls-4" d="M1092.156,330.321c-15.693-26.517-46.742-27.753-46.742-27.753s-30.255-3.869-49.663,36.517c-18.09,37.643-49.224,108.43-10.187,117.242l13.695-46.22,1.854,5.992,2.036,7.42a152.529,152.529,0,0,0,16.7.285c41.805-1.35,89.491,17.56,88.209,2.558C1106.358,406.42,1107.256,355.833,1092.156,330.321Z"/>
          <path id="Trazado_30-2" data-name="Trazado 30" class="cls-3" d="M1027.74,385.819c5.408,11.962,8.818,26.22,10.854,42.058l43.414-2.713c-9.981-14.144-13.3-30.377-9.5-48.841Z"/>
          <path id="Trazado_31-2" data-name="Trazado 31" class="cls-5" d="M1027.74,385.819c5.408,11.962,8.818,26.22,10.854,42.058l43.414-2.713c-9.981-14.144-13.3-30.377-9.5-48.841Z"/>
          <path id="Trazado_32-2" data-name="Trazado 32" class="cls-3" d="M880.656,560.006s-22.47,12.036-11.068,22.312,26.464-13.6,26.464-13.6Z"/>
          <path id="Elipse_2" data-name="Elipse 2" class="cls-6" d="M33.918,0A33.918,33.918,0,1,1,0,33.918,33.918,33.918,0,0,1,33.918,0Z" transform="translate(1013.853 329.516)"/>
          <path id="Trazado_35" data-name="Trazado 35" class="cls-7" d="M1109.68,577.674a57.934,57.934,0,0,1-6.248,14.918c-1.1,1.77-5.374,5.457-6.313,6.528-2.766,3.154-3.448-.738-3.637-2.976a8.484,8.484,0,0,0-1.155-2.646,39.285,39.285,0,0,1-7.067-8.6,101.159,101.159,0,0,0-6.112-9.359l-11.842-4.392s-58.465-.773-60.594-.1-12.005,9.848-12.005,9.848a14.572,14.572,0,0,1-8.316-5.4,25.076,25.076,0,0,1-4.4-11.229c-.623-3.529,2.765-13.2,3.858-22.437a67.718,67.718,0,0,0,.516-14.052s.028-7.3.027-7.557c-.048-19.536-34.473-47.984-34.473-47.984l21.989-34.466s8.059-8.39,13.139-8.78l22.381-5.822s8.14-4.07,8.14-5.427-1.357-12.21,5.427-9.5c0,0,.61-13.92,7.76-9.673,0,0,22.508,17.637,45.355.773,0,0,7.906-.005,9.106,3.4.911,2.586.169,9.091,2.9,9.573.577.1,6.093,3.671,6.093,6.385,0,.583,9.712,6.6,11.1,15.051v.014c5.033,30.811,4.092,86.457,4.092,86.457C1111.506,527.206,1106.873,528.656,1109.68,577.674Z"/>
          <path id="Trazado_36" data-name="Trazado 36" class="cls-7" d="M978.2,434.362l-27.281,39.532s-.994,1.762-5.965,10.936-15.244,25.206-15.244,25.206l-56.571,49.821s23.732,4.961,18.306,26.668l97.758-75.081Z"/>
          <path id="Trazado_37" data-name="Trazado 37" class="cls-8" d="M1105.143,434.508v.014c-.684,4.123-9.6,6.352-21.107,7.56-3.2.336-6.6.585-10.348.783-15.789.834-33.133.245-37.289.245-8.144,0-14.924-1.387-23.064-6.936s-4.07-12.486-4.07-12.486,6.931-5.4,6.931-6.785-1.357-12.486,5.427-9.711c0,0,.61-14.234,7.76-9.891,0,0,23.717,19.271,46.564,2.027,0,0,7.984-2,9.635,3.474,2.163,7.169-.429,6.629,1.821,8,2.319,1.408,1.435,1.865,10.909,9.2A30.447,30.447,0,0,1,1105.143,434.508Z"/>
          <path id="Trazado_38" data-name="Trazado 38" class="cls-3" d="M1126.234,565.475s-12.881,22,2.209,24.808,15.471-25.415,15.471-25.415Z" transform="translate(2 -1)"/>
          <path id="Trazado_39" data-name="Trazado 39" class="cls-7" d="M1150.906,520.741a307.775,307.775,0,0,0-23.98-78.617l-.411-.895c-13.8-30.02-60.218-11.752-60.218-11.752l30.719,47.627c-2.414,24.9,26.4,88.358,26.4,88.358,4.862-2.426,29.074,4.482,29.074,4.482Z"/>
          <path id="Trazado_40" data-name="Trazado 40" class="cls-5" d="M1089.337,440.5l33.377,91.845-12.21-55.625Z"/>
          <path id="Trazado_41" data-name="Trazado 41" class="cls-4" d="M1085.217,327.76,1054.54,311.7l-42.359,6.573-8.764,38.708,15.986-2.419,16.679-22.386-13.6,21.287,4.719-2.195L1042.99,330.1l42.228,26.877,1.461-.73Z"/>
          <path id="Trazado_53" data-name="Trazado 53" class="cls-8" d="M1077.183,416.483c-1.873,11.108,10.8,3.207,11.426,3.394l-8.116-2.813c11.651,3.938,21.17,64.132,20.6,72.256s-2.4,14.8-8.385,22.543c-4.112,5.32-8.46,4.844-10.779,4.024a4.8,4.8,0,0,1-2.37-1.826c-1.369-2-4.421-6.3-5.459-6.373-1.129-.079-8.9.321-9.625-3.352a4.869,4.869,0,0,0-3.55-3.573c-3.653-1.059-8.014-3.281-5.037-7.578,0,0,20.377-22.25,5.34-46.17-.068-.109-.13-.216-.188-.33-.991-1.963-10.176-20.367-5.138-18.726,6.071,1.978,8.915,2.1,4.365-5.108-3.882-6.15,16.7-7.089,23.868-5.89C1085.121,417.126,1078.232,410.259,1077.183,416.483Z"/>
          <g id="Trazado_55" data-name="Trazado 55">
            <path id="Trazado_2" data-name="Trazado 2" class="cls-9" d="M1037.073,352.617c3.031.382,5.106.575,6.255,2.583.845,1.338,1.225,3.815.338,7.6-1.354,5.754-7.954,6.129-10.332,5.975a9.283,9.283,0,0,1-7-3.516c-2.011-2.616-2.927-6.51-2.336-8.624C1024.5,352.583,1032.535,352.231,1037.073,352.617Z"/>
            <path id="Trazado_3" data-name="Trazado 3" class="cls-10" d="M1034.192,353.5a22.025,22.025,0,0,0-6.3.789c-1.793.576-2.77,1.408-2.9,2.473l-.009.074-.02.071c-.478,1.708.293,5.309,2.164,7.746a8.272,8.272,0,0,0,6.209,3.124h.032l.032,0c.24.015.5.023.765.023a12.421,12.421,0,0,0,4.937-.968,6.049,6.049,0,0,0,3.592-4.263c1-4.28.188-6.206-.21-6.835l-.011-.019-.011-.019c-.825-1.441-2.269-1.681-5.2-2.048l-.294-.037c-.888-.075-1.847-.114-2.776-.114m0-1c1.036,0,2.021.046,2.881.12,3.031.382,4.612.406,6.255,2.583.845,1.338,1.225,3.815.338,7.6-1.216,5.182-6.685,6-9.5,6-.312,0-.591-.01-.829-.026a9.28,9.28,0,0,1-7-3.515c-2.01-2.617-2.925-6.514-2.334-8.624C1024.408,353.351,1029.761,352.5,1034.192,352.5Z"/>
          </g>
          <g id="Trazado_55-2" data-name="Trazado 55">
            <path id="Trazado_4" data-name="Trazado 4" class="cls-9" d="M1071.086,356.635c.591,2.114-.325,6.008-2.336,8.624a9.283,9.283,0,0,1-7,3.516c-2.378.154-8.978-.221-10.332-5.975-.887-3.785-.507-6.262.338-7.6,1.149-2.008,3.224-2.2,6.255-2.583C1062.549,352.231,1070.58,352.583,1071.086,356.635Z"/>
            <path id="Trazado_5" data-name="Trazado 5" class="cls-10" d="M1063.056,353.5c-.929,0-1.888.039-2.776.114l-.294.037c-2.929.367-4.373.607-5.2,2.048l-.011.019-.011.019c-.4.629-1.214,2.555-.21,6.835a6.049,6.049,0,0,0,3.592,4.263,12.421,12.421,0,0,0,4.937.968c.267,0,.525-.008.765-.023l.032,0h.032a8.274,8.274,0,0,0,6.209-3.125c1.871-2.437,2.643-6.038,2.164-7.746l-.02-.071-.009-.074c-.133-1.065-1.11-1.9-2.9-2.473a22.024,22.024,0,0,0-6.3-.789m10.194,3.138c.591,2.11-.324,6.007-2.334,8.624a9.28,9.28,0,0,1-7,3.516c-.238.015-.517.025-.829.025-2.818,0-8.287-.821-9.5-6-.887-3.782-.507-6.259.338-7.6,1.643-2.177,3.225-2.2,6.255-2.583.86-.074,1.845-.12,2.881-.12C1067.487,352.5,1072.84,353.351,1073.25,356.635Z"/>
          </g>
          <path id="Trazado_6" data-name="Trazado 6" class="cls-10" d="M1053.86,358.3c0,1.191-2.392-.868-5.343-.868s-5.344,2.059-5.344.868,2.393-2.156,5.344-2.156S1053.86,357.109,1053.86,358.3Z"/>
        </g>
      </g>
      <g id="Grupo_5" data-name="Grupo 5" transform="translate(-7 563.733)">
        <circle id="Elipse_8" data-name="Elipse 8" class="cls-11" cx="33.342" cy="33.342" r="33.342" transform="translate(224.316 351.589)"/>
        <circle id="Elipse_9" data-name="Elipse 9" class="cls-12" cx="31.214" cy="31.214" r="31.214" transform="translate(226.444 353.717)"/>
        <path id="Trazado_60" data-name="Trazado 60" class="cls-12" d="M574.29,534.64c-2.3.2-4.828-.939-5.324-3.218a7.085,7.085,0,0,1,.606-3.848c.481-1.364.9-2.542.3-3.512a3.687,3.687,0,0,0-1.226-1.073c-.619-.385-1.284-.742-1.927-1.086a21.127,21.127,0,0,1-3.281-2.026c-2.007-1.6-3.022-3.743-2.715-5.722a8.8,8.8,0,0,1,2.54-4.288c1.147-1.3,2.23-2.527,2.2-4.029-.034-2.043-2.123-3.511-3.966-4.8l-.288-.2c-2.249-1.586-4.408-4.339-3.1-6.876a6.1,6.1,0,0,1,1.963-2,7.269,7.269,0,0,0,1.354-1.183c1.352-1.674.662-4.155.3-5.143-.273-.751-.63-1.5-.976-2.226a18.737,18.737,0,0,1-1.344-3.374l-.05-.2c-.739-2.876-.738-2.983.043-5.743l.1-.344,1.166.329-.1.345c-.706,2.5-.706,2.5-.035,5.112l.05.2a17.559,17.559,0,0,0,1.265,3.153c.358.751.728,1.528,1.021,2.334.908,2.5.726,4.8-.5,6.318a8.274,8.274,0,0,1-1.574,1.395,5.128,5.128,0,0,0-1.61,1.589c-1.021,1.973,1.228,4.279,2.718,5.329l.286.2c1.976,1.388,4.436,3.116,4.48,5.776.033,1.972-1.259,3.436-2.508,4.851a7.82,7.82,0,0,0-2.251,3.672c-.282,1.819.99,3.564,2.274,4.59a19.9,19.9,0,0,0,3.1,1.9c.66.353,1.342.719,2,1.125a4.737,4.737,0,0,1,1.616,1.464c.905,1.463.352,3.033-.184,4.552a6.137,6.137,0,0,0-.565,3.187c.386,1.771,2.709,2.577,4.552,2.193a13.42,13.42,0,0,0,4.242-2.02c.455-.284.925-.577,1.4-.849,2.584-1.484,4.925-1.847,6.771-1.049a8.943,8.943,0,0,1,1.641,1,9.038,9.038,0,0,0,1.259.8,4.353,4.353,0,0,0,5.58-1.938c.089-.185.169-.384.254-.594a3.846,3.846,0,0,1,1.269-1.9,3.886,3.886,0,0,1,2.282-.484l6.772.057-.01,1.211-6.772-.057a1.938,1.938,0,0,0-2.418,1.624c-.088.219-.179.445-.285.666a5.561,5.561,0,0,1-7.2,2.5,10.071,10.071,0,0,1-1.432-.906,7.912,7.912,0,0,0-1.417-.874c-1.871-.809-4.126.09-5.687.988-.454.261-.915.548-1.36.826a14.519,14.519,0,0,1-4.636,2.178A5.673,5.673,0,0,1,574.29,534.64Z" transform="translate(-352.029 -116.161)"/>
        <path id="Trazado_61" data-name="Trazado 61" class="cls-13" d="M916.675,706.708s17.4,1.489,20,26.9" transform="translate(-655.621 -343.798)"/>
        <path id="Trazado_62" data-name="Trazado 62" class="cls-13" d="M836.87,736.156s-8.233-20.638,18.65-34.763" transform="translate(-603.357 -340.368)"/>
        <path id="Trazado_63" data-name="Trazado 63" class="cls-13" d="M856.235,752.871s-3.794-10.7,4.508-17.49" transform="translate(-616.061 -362.301)"/>
        <path id="Trazado_64" data-name="Trazado 64" class="cls-13" d="M902.4,732.565s7.213,5.06,4.928,19.505" transform="translate(-646.406 -360.484)"/>
        <path id="Trazado_65" data-name="Trazado 65" class="cls-13" d="M939.98,692.1s11.868,5.361,16.412,24.544" transform="translate(-670.66 -334.372)"/>
        <path id="Trazado_67" data-name="Trazado 67" class="cls-13" d="M877.119,805.206s6.662,6.889,30.386-2.684" transform="translate(-630.096 -405.627)"/>
        <path id="Trazado_68" data-name="Trazado 68" class="cls-13" d="M838.648,704.649a27.306,27.306,0,0,0-8.852,20.723" transform="translate(-599.558 -342.469)"/>
        <path id="Trazado_69" data-name="Trazado 69" class="cls-13" d="M851.388,798.256s-1.745,4.427,2.838,7.939" transform="translate(-613.281 -402.874)"/>
        <path id="Trazado_70" data-name="Trazado 70" class="cls-13" d="M956.959,810.871s-2.431,8.761-7.471,8.138" transform="translate(-676.796 -411.014)"/>
        <path id="Trazado_71" data-name="Trazado 71" class="cls-13" d="M928.618,745.307a9.831,9.831,0,0,1,1.872,9.093" transform="translate(-663.328 -368.706)"/>
        <path id="Trazado_72" data-name="Trazado 72" class="cls-13" d="M876.43,750.7s-2.68,5.934-.508,10.371" transform="translate(-628.776 -372.188)"/>
        <path id="Trazado_73" data-name="Trazado 73" class="cls-13" d="M889.858,749.735s3.066,6.495.905,10.246" transform="translate(-638.316 -371.563)"/>
      </g>
      <g id="Grupo_3" data-name="Grupo 3" transform="translate(-451 297.661)">
        <path id="Trazado_80" data-name="Trazado 80" class="cls-14" d="M392.282,702.229H250.345a46.468,46.468,0,0,1,46.467-46.468c25.862-8.061,59.6-5.475,95.47,0Z" transform="translate(508 -19.126)"/>
        <path id="Trazado_81" data-name="Trazado 81" class="cls-2" d="M452.613,645.364h66.744a4.224,4.224,0,0,1,4.224,4.224h0a4.224,4.224,0,0,1-4.224,4.224H452.613v-8.449Z" transform="translate(427.392 27.601)"/>
        <path id="Trazado_82" data-name="Trazado 82" class="cls-2" d="M541.913,545.862l17.89-21.686a4.7,4.7,0,0,1,8.753.75l7.055,24.909Z" transform="translate(349.652 51.003)"/>
        <path id="Trazado_83" data-name="Trazado 83" class="cls-14" d="M494.424,560.962l6.759-27.288a4.7,4.7,0,0,1,8.217-3.107l17.128,19.412Z" transform="translate(375.443 46.948)"/>
        <path id="Trazado_84" data-name="Trazado 84" class="cls-14" d="M186.345,667.553h13.518v28.725A13.518,13.518,0,0,1,186.345,709.8h0V667.553Z" transform="translate(572 15.55)"/>
        <path id="Trazado_85" data-name="Trazado 85" class="cls-14" d="M447.066,649.062H513.81a4.224,4.224,0,0,1,4.224,4.224h0a4.224,4.224,0,0,1-4.224,4.224H447.066Z" transform="translate(430.405 25.592)"/>
        <path id="Trazado_90" data-name="Trazado 90" class="cls-14" d="M45.623,0A45.623,45.623,0,0,1,91.245,45.623c0,1.436-.066,2.857-.221,4.517A45.624,45.624,0,1,1,45.623,0Z" transform="translate(854.659 591.858)"/>
        <ellipse id="Elipse_24" data-name="Elipse 24" class="cls-2" cx="1.267" cy="2.957" rx="1.267" ry="2.957" transform="translate(930.697 625.652)"/>
        <ellipse id="Elipse_25" data-name="Elipse 25" class="cls-2" cx="1.267" cy="2.957" rx="1.267" ry="2.957" transform="translate(939.991 619.738)"/>
        <path id="Trazado_86" data-name="Trazado 86" class="cls-2" d="M549.6,554.295s-2.536-4.411-2.536-7.1" transform="translate(346.854 37.055)"/>
        <path id="Trazado_87" data-name="Trazado 87" class="cls-2" d="M555.055,548.436s1.382-4.9,3.306-6.778" transform="translate(342.515 40.061)"/>
        <path id="Trazado_92" data-name="Trazado 92" class="cls-15" d="M5.069,0c2.8,0,5.069,1.938,5.069,4.328S7.869,8.656,5.069,8.656,0,6.718,0,4.328,2.27,0,5.069,0Z" transform="translate(939.146 629.031)"/>
      </g>
    </g>
  </g>
</svg>
