<svg width="582" height="444" viewBox="0 0 582 444" fill="none" xmlns="http://www.w3.org/2000/svg">
<path d="M483.444 443.167C537.566 443.167 581.441 399.477 581.441 345.583C581.441 291.69 537.566 248 483.444 248C429.322 248 385.447 291.69 385.447 345.583C385.447 399.477 429.322 443.167 483.444 443.167Z" fill="#85C5E5"/>
<path d="M465.763 393.438C460.206 391.98 454.848 390.325 450.017 387.48L450.61 386.896C452.685 387.346 454.8 387.437 456.794 387.644C455.249 386.888 453.721 386.116 452.222 385.309L525.103 357.404C528.78 359.552 527.834 353.291 531.044 356.189C528.598 354.804 537.043 358.409 534.328 357.832C540.037 361.962 526.834 353.142 530.918 358.872C529.016 357.495 540.757 361.228 538.312 360.385C542.668 366.388 532.953 361.892 541.614 357.027C540.252 355.118 551.661 348.482 549.487 347.371C550.314 348.58 552.154 359.934 553.257 367.515C551.896 365.606 550.848 362.578 549.487 360.666C549.753 367.832 550.362 369.166 549.025 376.985C548.747 374.549 548.199 372.38 547.652 370.211C546.314 378.031 544.161 385.567 540.652 392.817C540.646 390.114 541.453 387.693 541.446 384.992C538.209 392.514 533.883 398.943 528.743 405.089C530.635 402.682 531.17 399.446 532.52 396.492C527.923 403.185 521.695 408.236 515.465 412.748C518.172 410.082 520.064 407.135 522.5 404.195C516.813 409.253 510.312 413.491 503.264 416.639C506.514 413.981 510.306 411.328 513.283 408.396C506.78 412.092 500.276 415.248 492.954 417.041C497.562 415.211 501.626 412.834 505.417 409.641C499.183 412.53 492.676 414.606 485.624 415.592C490.778 414.311 495.112 411.667 499.447 409.021C493.211 411.369 486.702 412.364 480.192 413.357C485.073 411.801 490.223 409.978 494.831 407.607C488.594 409.415 482.083 409.869 475.843 410.056C480.997 409.314 485.877 407.759 490.485 405.388C484.519 406.929 478.278 407.116 472.036 406.763C476.919 406.288 481.529 404.997 485.867 403.435C479.898 403.895 473.385 403.808 467.415 403.188C471.757 403.246 476.094 401.682 480.434 400.66C474.193 400.847 467.952 400.494 461.706 398.518C465.777 398.843 469.847 398.626 473.643 397.597C467.4 396.703 460.885 395.535 454.909 393.292C458.71 393.884 462.238 394.201 465.763 393.438Z" fill="#FEFEFD"/>
<path d="M430.518 343.363C430.262 337.646 430.255 332.06 431.547 326.621L432.282 327.011C432.468 329.118 433.01 331.155 433.404 333.112C433.67 331.419 433.955 329.736 434.284 328.071L482.715 389.06C481.75 393.196 487.471 390.434 485.647 394.347C486.248 391.611 485.303 400.711 485.049 397.959C482.787 404.614 487.316 389.439 483.038 395.026C483.792 392.808 483.705 405.081 483.786 402.506C479.326 408.433 480.747 397.859 487.987 404.646C489.413 402.783 499.169 411.657 499.587 409.259C498.674 410.405 488.336 415.531 481.395 418.835C482.821 416.973 485.412 415.076 486.84 413.213C480.049 415.598 478.951 416.574 471.057 417.628C473.31 416.639 475.226 415.473 477.143 414.308C469.248 415.361 461.381 415.556 453.387 414.376C455.976 413.567 458.537 413.614 461.125 412.804C452.95 411.964 445.5 409.763 438.078 406.704C440.949 407.787 444.21 407.333 447.445 407.738C439.66 405.358 432.964 400.94 426.785 396.359C430.147 398.139 433.535 399.062 437.078 400.503C430.537 396.601 424.541 391.681 419.426 385.916C422.941 388.215 426.613 391.031 430.31 392.99C424.831 387.907 419.871 382.661 415.974 376.234C419.1 380.07 422.587 383.228 426.776 385.882C422.152 380.814 418.226 375.246 415.183 368.834C417.945 373.353 421.769 376.687 425.595 380.022C421.489 374.792 418.599 368.899 415.71 363.006C418.654 367.183 421.934 371.537 425.578 375.213C421.989 369.821 419.617 363.766 417.582 357.889C419.826 362.568 422.769 366.745 426.413 370.42C423.161 365.207 421.125 359.329 419.607 353.29C421.515 357.791 424.123 361.79 426.912 365.449C424.695 359.911 422.842 353.694 421.66 347.833C422.896 351.979 425.685 355.637 427.956 359.459C425.921 353.581 424.403 347.542 424.44 341.016C425.339 344.983 426.758 348.788 428.873 352.091C427.874 345.89 427.056 339.348 427.428 333C427.991 336.791 428.737 340.239 430.518 343.363Z" fill="#FEFEFD"/>
<path d="M433.706 334.288C430.784 339.216 428.143 344.144 426.718 349.55H427.551C428.709 347.777 430.148 346.231 431.42 344.688C430.855 346.307 430.314 347.926 429.818 349.55H539.968C541.065 345.448 541.597 341.292 541.833 336.984C541.073 339.681 539.549 342.377 538.026 344.688C539.168 337.754 539.168 330.437 538.026 323.503C537.646 325.815 537.265 328.51 536.122 330.822C534.979 323.503 533.837 316.185 530.411 309.637C530.792 311.948 531.173 314.644 530.411 316.956C528.507 309.637 523.939 303.475 519.37 297.311C519.75 299.623 520.892 301.548 521.274 303.861C516.704 297.697 510.994 292.304 504.522 287.682C506.044 289.608 507.187 291.534 508.329 293.459C501.855 288.837 495.003 284.986 487.388 282.289C489.292 284.214 491.576 285.371 493.479 287.296C485.865 284.214 478.249 282.673 470.254 281.903C473.3 282.289 475.965 284.215 479.011 285.371C471.016 283.831 463.021 284.6 455.405 285.755C459.213 285.755 462.639 286.526 466.447 286.91C458.832 287.296 451.217 288.836 443.983 291.533C448.171 291.147 452.74 290.378 456.928 290.378C449.694 292.303 442.841 294.614 436.368 298.466C440.938 296.541 445.506 295.385 450.455 295C443.983 297.311 437.891 300.392 432.181 304.63C436.75 301.932 441.698 300.777 446.649 299.622C440.557 302.319 435.227 306.169 429.897 310.022C434.466 307.71 439.415 305.4 444.366 303.859C438.654 306.941 433.704 311.178 429.136 315.414C433.324 312.333 437.892 310.022 442.843 308.481C437.513 311.562 432.944 315.8 428.755 320.422C432.562 317.34 436.751 315.03 440.939 313.103C436.37 316.955 431.801 321.578 427.994 326.199C431.041 323.117 435.228 321.192 439.036 318.88C434.466 323.117 430.279 327.739 427.233 333.518C429.898 330.436 432.945 327.74 436.371 325.813C432.563 330.82 428.756 336.213 426.091 341.992C428.376 338.909 430.66 336.213 433.706 334.288Z" fill="#FFAC4D"/>
<path d="M449.131 304.416C456.016 311.271 456.138 322.265 449.405 328.968C442.673 335.672 431.633 335.549 424.749 328.695C417.866 321.84 416.84 296.541 416.84 296.541C416.84 296.541 442.248 297.562 449.131 304.416Z" fill="#FFAC4D"/>
<path d="M441.488 308.396C445.085 311.979 445.15 317.723 441.631 321.227C438.113 324.731 432.345 324.666 428.748 321.084C425.151 317.502 424.614 304.281 424.614 304.281C424.614 304.281 437.891 304.816 441.488 308.396Z" fill="#70491A"/>
<path d="M519.832 304.416C512.949 311.271 512.825 322.265 519.558 328.968C526.29 335.672 537.33 335.549 544.213 328.695C551.097 321.84 552.122 296.541 552.122 296.541C552.122 296.541 526.716 297.562 519.832 304.416Z" fill="#FFAC4D"/>
<path d="M483.964 410.759C521.094 410.759 551.194 385.742 551.194 354.881C551.194 324.021 521.094 299.003 483.964 299.003C446.835 299.003 416.735 324.021 416.735 354.881C416.735 385.742 446.835 410.759 483.964 410.759Z" fill="#FEFEFD"/>
<path d="M527.475 308.396C523.878 311.979 523.813 317.723 527.332 321.227C530.85 324.731 536.618 324.666 540.215 321.084C543.813 317.502 544.349 304.281 544.349 304.281C544.349 304.281 531.072 304.816 527.475 308.396Z" fill="#70491A"/>
<path d="M551.176 354.673C551.178 354.481 551.194 354.293 551.194 354.101C551.194 323.241 521.094 298.223 483.964 298.223C446.836 298.223 416.735 323.24 416.735 354.101C416.735 354.293 416.75 354.481 416.753 354.673H551.176Z" fill="#FFAC4D"/>
<path d="M496.532 349.709C491.453 348.212 489.056 347.847 483.618 347.956C479.234 348.043 476.099 348.526 471.878 349.709C455.849 354.202 434.989 364.024 445.894 383.374C455.179 399.846 469.969 398.883 473.258 396.959C476.023 395.341 481.844 391.127 483.966 380.419C486.087 391.127 491.908 395.343 494.674 396.959C497.962 398.881 512.753 399.846 522.037 383.374C532.941 364.023 512.391 354.383 496.532 349.709Z" fill="#F7EDE3"/>
<path d="M466.854 359.075C454.506 358.78 442.288 360.798 430.7 365.059C429.646 365.447 430.1 367.14 431.167 366.748C442.618 362.536 454.651 360.534 466.854 360.826C467.99 360.853 467.987 359.101 466.854 359.075Z" fill="#C0C0C0"/>
<path d="M468.98 366.935C456.636 368.981 445.174 374.201 435.488 382.082C434.608 382.796 435.861 384.028 436.732 383.32C446.18 375.633 457.42 370.619 469.449 368.626C470.565 368.44 470.09 366.752 468.98 366.935Z" fill="#C0C0C0"/>
<path d="M464.619 375.528C455.146 382.704 447.421 391.754 441.901 402.26C441.377 403.26 442.895 404.145 443.419 403.145C448.791 392.921 456.281 384.027 465.506 377.04C466.397 376.366 465.523 374.843 464.619 375.528Z" fill="#C0C0C0"/>
<path d="M501.075 359.075C513.422 358.78 525.641 360.798 537.229 365.059C538.283 365.447 537.827 367.14 536.761 366.748C525.312 362.536 513.279 360.534 501.075 360.826C499.939 360.853 499.943 359.101 501.075 359.075Z" fill="#C0C0C0"/>
<path d="M498.95 366.935C511.294 368.981 522.756 374.201 532.442 382.082C533.322 382.796 532.069 384.028 531.198 383.32C521.749 375.633 510.509 370.619 498.481 368.626C497.364 368.44 497.839 366.752 498.95 366.935Z" fill="#C0C0C0"/>
<path d="M503.31 375.528C512.783 382.704 520.508 391.754 526.027 402.26C526.552 403.26 525.034 404.145 524.508 403.145C519.138 392.921 511.647 384.027 502.421 377.04C501.531 376.366 502.406 374.843 503.31 375.528Z" fill="#C0C0C0"/>
<path d="M488.901 357.308C488.901 358.722 486.86 362.569 483.618 362.569C480.376 362.569 478.335 358.722 478.335 357.308C478.335 356.379 480.096 354.97 481.857 355.554C483.031 356.139 483.031 356.724 483.618 357.308C484.205 356.724 484.205 356.139 485.379 355.554C486.989 354.753 488.901 356.379 488.901 357.308Z" fill="#FF7092"/>
<path d="M461.212 346.786C461.212 349.619 458.386 351.947 454.854 351.947C451.323 351.947 448.497 349.619 448.497 346.786C448.497 343.954 451.323 341.626 454.854 341.626C458.386 341.626 461.212 343.954 461.212 346.786Z" fill="#FF8800" stroke="#E37A02" stroke-width="0.2"/>
<path d="M470.281 330.127C470.928 328.09 471.624 326.086 472.646 324.065L472.792 324.164C472.578 324.91 472.467 325.612 472.327 326.292C472.609 325.67 472.895 325.051 473.19 324.436L474.663 344.314C473.89 345.85 479.502 343.914 478.53 345.417C479.031 344.402 477.643 347.719 477.92 346.745C476.489 349.256 479.585 343.565 477.753 345.802C478.23 344.965 476.674 349.373 477.017 348.445C475.094 350.814 476.792 346.943 477.864 348.984C478.474 348.238 478.045 352.386 478.455 351.503C478.07 351.964 476.596 352.87 474.343 354.433C474.954 353.687 475.878 352.866 476.489 352.12C474.391 353.345 473.978 353.755 471.753 354.562C472.474 354.085 473.128 353.562 473.781 353.04C471.556 353.848 469.446 354.345 467.474 354.357C468.262 353.926 468.935 353.803 469.722 353.372C467.66 353.516 465.959 353.131 464.373 352.438C464.999 352.67 465.921 352.33 466.728 352.299C464.961 351.869 463.737 350.648 462.671 349.341C463.34 349.797 464.124 349.943 464.883 350.268C463.636 349.224 462.661 347.785 462.025 345.995C462.67 346.629 463.291 347.439 464.027 347.941C463.209 346.415 462.549 344.804 462.319 342.71C462.668 343.916 463.199 344.859 463.978 345.583C463.385 344.017 463.04 342.233 463.034 340.098C463.201 341.569 463.799 342.557 464.397 343.545C463.961 341.892 463.931 339.936 463.902 337.979C464.16 339.317 464.486 340.701 464.993 341.821C464.715 340.082 464.842 338.039 465.037 336.041C465.047 337.598 465.306 338.936 465.813 340.056C465.602 338.363 465.797 336.365 466.148 334.281C466.092 335.792 466.284 337.085 466.566 338.246C466.67 336.38 466.956 334.25 467.374 332.212C467.184 333.632 467.467 334.793 467.591 336.04C467.786 334.042 468.138 331.959 468.963 329.616C468.706 330.99 468.607 332.277 468.755 333.347C469.265 331.177 469.865 328.875 470.757 326.577C470.433 327.906 470.2 329.103 470.281 330.127Z" fill="#FFFBF5"/>
<path d="M495.618 329.137C494.972 327.1 494.276 325.097 493.254 323.075L493.108 323.175C493.322 323.921 493.432 324.622 493.572 325.303C493.29 324.681 493.004 324.062 492.709 323.446L491.237 343.325C492.01 344.861 486.398 342.924 487.37 344.427C486.869 343.413 488.256 346.729 487.98 345.755C489.411 348.266 486.314 342.576 488.147 344.813C487.67 343.976 489.226 348.384 488.883 347.455C490.806 349.824 489.108 345.954 488.036 347.994C487.425 347.249 487.855 351.396 487.445 350.513C487.83 350.974 489.303 351.88 491.557 353.443C490.946 352.698 490.022 351.876 489.411 351.13C491.509 352.355 491.922 352.765 494.147 353.573C493.426 353.095 492.772 352.573 492.118 352.05C494.343 352.858 496.453 353.356 498.426 353.368C497.638 352.936 496.965 352.814 496.177 352.383C498.24 352.526 499.941 352.142 501.526 351.448C500.901 351.681 499.979 351.34 499.172 351.31C500.939 350.88 502.162 349.659 503.228 348.352C502.559 348.807 501.776 348.954 501.017 349.278C502.264 348.234 503.239 346.796 503.875 345.006C503.23 345.639 502.608 346.45 501.873 346.951C502.691 345.426 503.35 343.814 503.581 341.72C503.231 342.927 502.701 343.869 501.922 344.594C502.515 343.027 502.86 341.243 502.866 339.109C502.698 340.58 502.101 341.568 501.503 342.556C501.938 340.903 501.968 338.946 501.998 336.989C501.739 338.328 501.414 339.711 500.907 340.831C501.185 339.093 501.057 337.049 500.863 335.052C500.852 336.608 500.594 337.947 500.087 339.067C500.298 337.374 500.103 335.376 499.751 333.292C499.808 334.803 499.616 336.095 499.333 337.256C499.229 335.39 498.944 333.261 498.525 331.223C498.715 332.643 498.433 333.803 498.308 335.051C498.113 333.053 497.762 330.969 496.937 328.626C497.194 330 497.293 331.288 497.145 332.358C496.635 330.188 496.035 327.885 495.143 325.588C495.467 326.917 495.7 328.113 495.618 329.137Z" fill="#FFFBF5"/>
<path d="M467.262 310.756C461.642 311.954 456.213 313.36 451.254 315.978L451.819 316.589C453.913 316.235 456.03 316.242 458.031 316.128C456.453 316.811 454.89 317.512 453.355 318.249L514.143 332.758C517.916 330.782 527.389 353.735 530.731 350.989C528.224 352.259 536.828 349.05 534.089 349.5C539.984 345.639 526.383 353.837 530.731 348.303C528.766 349.591 540.67 346.406 538.188 347.134C542.82 341.339 532.905 345.381 541.329 350.641C539.879 352.486 552.762 353.377 550.537 354.385C551.42 353.216 551.993 348.227 553.45 340.704C552.001 342.549 550.813 345.525 549.363 347.371C549.964 340.226 550.635 338.921 549.665 331.049C549.273 333.469 548.625 335.611 547.976 337.752C547.005 329.879 545.207 322.251 542.04 314.846C541.908 317.545 542.601 320.001 542.468 322.699C539.586 315.035 535.565 308.413 530.717 302.035C532.496 304.527 532.878 307.785 534.089 310.799C529.81 303.9 523.825 298.565 517.812 293.769C520.391 296.558 522.144 299.59 524.439 302.639C518.995 297.323 512.699 292.789 505.806 289.318C508.928 292.123 512.592 294.949 515.429 298.016C509.106 294.022 502.756 290.569 495.525 288.438C500.043 290.48 503.992 293.043 507.63 296.407C501.538 293.233 495.135 290.858 488.136 289.546C493.224 291.065 497.43 293.907 501.638 296.75C495.518 294.116 489.063 292.821 482.606 291.527C487.409 293.307 492.468 295.367 496.96 297.949C490.814 295.853 484.332 295.098 478.107 294.623C483.221 295.602 488.023 297.382 492.515 299.965C486.628 298.149 480.402 297.673 474.15 297.736C479.006 298.437 483.55 299.94 487.81 301.702C481.869 300.965 475.36 300.75 469.367 301.093C473.708 301.236 477.967 302.999 482.254 304.221C476.028 303.746 469.778 303.809 463.446 305.494C467.528 305.358 471.583 305.763 475.327 306.967C469.049 307.57 462.486 308.435 456.412 310.398C460.237 309.983 463.776 309.83 467.262 310.756Z" fill="#FFAC4D"/>
<path d="M495.627 303.001C501.323 303.655 506.852 304.531 512.041 306.653L511.545 307.31C509.432 307.159 507.334 307.366 505.339 307.443C506.975 307.97 508.597 308.515 510.196 309.099L442.588 346.797C438.641 345.2 440.517 351.228 436.917 348.827C439.535 349.847 430.671 347.485 433.433 347.672C427.185 344.409 441.524 351.234 436.636 346.169C438.718 347.257 426.586 345.233 429.122 345.719C423.925 340.423 434.176 343.483 426.375 349.487C428.005 351.175 415.328 353.277 417.638 354.064C416.641 352.991 415.552 348.107 413.321 340.801C414.951 342.489 416.439 345.322 418.069 347.011C416.727 339.997 415.925 338.77 416.065 330.887C416.706 333.246 417.572 335.303 418.439 337.361C418.579 329.477 419.564 321.758 421.929 314.131C422.342 316.789 421.912 319.285 422.326 321.943C424.381 314.085 427.676 307.151 431.814 300.38C430.312 303.015 430.273 306.275 429.388 309.372C432.909 302.139 438.284 296.293 443.743 290.978C441.478 293.982 440.057 297.148 438.1 300.383C442.941 294.607 448.708 289.524 455.179 285.435C452.377 288.508 449.041 291.651 446.549 294.955C452.4 290.403 458.333 286.385 465.278 283.591C461.013 286.04 457.366 288.95 454.112 292.624C459.819 288.905 465.918 285.949 472.719 283.988C467.833 285.973 463.961 289.184 460.088 292.396C465.878 289.209 472.142 287.316 478.407 285.424C473.832 287.641 469.033 290.159 464.85 293.139C470.723 290.484 477.07 289.122 483.19 288.062C478.224 289.516 473.65 291.732 469.467 294.713C475.113 292.358 481.235 291.298 487.438 290.768C482.698 291.922 478.351 293.839 474.312 295.987C480.124 294.695 486.554 293.866 492.53 293.637C488.243 294.19 484.205 296.338 480.083 297.954C486.205 296.893 492.407 296.364 498.86 297.432C494.799 297.684 490.822 298.469 487.236 300.015C493.523 300.018 500.119 300.252 506.345 301.619C502.51 301.571 498.985 301.754 495.627 303.001Z" fill="#FFAC4D"/>
<path d="M419.883 351.174C417.428 350.18 415.149 349.12 413.569 347.614L414.09 347.421C415.04 347.754 416.137 347.944 417.128 348.173C416.569 347.754 416.024 347.33 415.507 346.893L451.332 352.942L461.564 351.671C462.773 352.809 459.001 350.068 459.697 351.477C458.878 350.738 462.24 351.924 460.993 351.493C460.824 348.871 462.591 353.583 460.993 351.493C460.461 350.796 461.024 351.63 460.014 351.111C460.233 353.863 454.663 352.838 460.993 351.493C460.936 350.619 461.748 350.743 460.977 350.135C460.995 350.685 462.483 347.266 460.412 350.423C460.355 349.549 462.74 351.029 462.684 350.155C460.311 353.082 459.486 352.094 456.029 355.17C456.735 354.161 465.062 351.404 465.531 350.484C462.072 353.56 464.479 352.495 460.062 355.183C461.007 354.086 462.301 354.334 463.246 353.238C458.878 356.055 454.313 358.35 449.412 360.471C451.267 359.632 452.688 358.358 454.445 357.257C449.642 359.639 444.545 361.237 439.636 362.616C442.017 361.731 444.061 360.672 446.393 359.656C441.583 361.296 436.625 362.544 431.758 363.31C434.426 362.467 437.381 361.666 439.999 360.692C435.23 361.72 430.651 362.529 426.113 362.725C429.216 362.317 432.219 361.647 435.363 360.627C431.022 361.347 426.82 361.717 422.709 361.605C425.91 361.459 429.152 360.701 432.394 359.942C428.241 360.442 424.418 360.374 420.594 360.305C423.746 360.027 427.134 359.661 430.426 359.033C426.462 359.314 422.828 359.026 419.431 358.649C422.443 358.722 425.593 358.445 428.885 357.817C425.16 358.01 421.763 357.633 418.555 357.037C421.328 357.198 424.242 357.009 427.106 356.69C423.758 356.444 420.312 355.936 417.343 355.251C419.64 355.589 422.504 355.27 425.179 355.17C421.782 354.793 418.575 354.197 415.934 352.942C417.993 353.369 420.242 353.576 422.629 353.434C419.611 352.618 416.543 351.672 414.14 350.328C415.961 350.844 417.733 351.229 419.883 351.174Z" fill="#FFAC4D"/>
<path d="M545.715 353.32C548.295 352.715 548.908 353.876 550.702 352.632L550.702 351.71C549.712 351.893 549.918 350.705 548.902 350.778C549.52 350.451 550.124 350.115 550.702 349.763L514.369 350.231L505.397 349.125C504.025 350.063 507.238 346.213 506.331 347.498C507.256 346.893 503.75 347.548 505.049 347.314C505.623 344.75 503.146 349.133 505.049 347.314C505.683 346.707 504.997 347.445 506.075 347.087C505.432 349.772 511.095 349.617 505.049 347.314C505.24 346.459 504.419 346.457 505.275 345.975C505.173 346.516 504.232 342.909 505.789 346.346C505.981 345.492 505.858 351.411 506.049 350.556C507.939 353.813 506.444 348.14 509.384 351.71C508.842 350.605 506.11 351.212 505.789 350.231C508.729 353.802 501.449 347.768 505.397 351.103C504.633 349.873 505.22 352.939 504.457 351.71C508.336 355.166 510.586 355.116 515.099 357.966C513.396 356.851 512.19 355.373 510.624 354.015C515 357.108 519.788 359.471 524.425 361.588C522.21 360.347 520.354 358.986 518.208 357.624C522.706 359.984 527.411 361.979 532.101 363.484C529.596 362.241 526.8 360.995 524.364 359.63C528.917 361.38 533.316 362.883 537.769 363.775C534.767 362.894 531.903 361.771 528.955 360.279C533.133 361.658 537.227 362.67 541.305 363.192C538.165 362.555 535.081 361.307 531.994 360.059C536.02 361.192 539.808 361.712 543.597 362.232C540.526 361.473 537.235 360.59 534.08 359.464C537.952 360.351 541.588 360.625 545.002 360.775C542.016 360.384 538.946 359.626 535.791 358.499C539.442 359.262 542.856 359.412 546.119 359.317C543.353 359.05 540.504 358.415 537.724 357.659C541.07 357.931 544.553 357.958 547.593 357.739C545.27 357.72 542.49 356.963 539.863 356.453C543.278 356.603 546.539 356.507 549.343 355.673C547.242 355.779 544.988 355.638 542.651 355.13C545.76 354.789 548.542 355.928 551.124 354.97C549.245 355.2 547.831 353.704 545.715 353.32Z" fill="#FFAC4D"/>
<path d="M476.299 310.336C477.333 307.55 478.448 304.838 480.09 302.247L480.328 302.465C479.986 303.496 479.811 304.506 479.589 305.472C480.042 304.66 480.501 303.854 480.975 303.058L483.496 333.808C482.254 335.778 491.336 335.418 489.77 337.247C490.576 335.941 488.35 340.323 488.791 338.977C486.489 342.12 491.469 334.929 488.514 337.474C489.282 336.427 486.79 342.383 487.339 341.135C484.239 343.839 486.964 338.76 488.715 342.339C489.7 341.49 489.032 347.568 489.691 346.42C489.069 346.941 486.687 347.638 483.047 348.971C484.031 348.122 485.523 347.303 486.509 346.454C483.116 347.346 482.45 347.777 478.85 347.98C480.015 347.588 481.071 347.097 482.127 346.606C478.526 346.809 475.11 346.596 471.914 345.711C473.187 345.419 474.277 345.542 475.551 345.25C472.209 344.523 469.45 343.163 466.876 341.387C467.892 342.026 469.383 341.932 470.69 342.256C467.824 340.796 465.833 338.389 464.097 335.923C465.184 336.919 466.454 337.499 467.687 338.337C465.659 336.187 464.069 333.564 463.026 330.565C464.075 331.818 465.088 333.329 466.284 334.425C464.948 331.742 463.868 329.002 463.48 325.728C464.055 327.713 464.921 329.383 466.188 330.835C465.217 328.194 464.645 325.337 464.621 322.104C464.903 324.407 465.878 326.175 466.853 327.944C466.137 325.244 466.075 322.27 466.013 319.295C466.442 321.439 466.979 323.681 467.808 325.608C467.345 322.85 467.538 319.817 467.84 316.884C467.868 319.243 468.296 321.387 469.125 323.314C468.772 320.655 469.073 317.721 469.629 314.73C469.548 316.99 469.868 319.033 470.334 320.919C470.489 318.144 470.937 315.052 471.602 312.161C471.304 314.222 471.77 316.107 471.98 318.052C472.282 315.118 472.838 312.127 474.159 308.959C473.752 310.921 473.6 312.824 473.848 314.51C474.659 311.46 475.616 308.252 477.046 305.184C476.529 307.046 476.16 308.75 476.299 310.336Z" fill="#FFFBF5"/>
<path d="M488.722 310.58C487.616 307.473 486.421 304.442 484.648 301.521L484.386 301.75C484.75 302.897 484.932 304.015 485.167 305.086C484.679 304.173 484.184 303.267 483.672 302.371L474.333 326.123C475.674 328.344 472.045 337.423 473.741 339.505C472.872 338.034 475.268 342.949 474.797 341.45C477.287 345.009 471.904 336.88 475.113 339.813C474.283 338.627 476.956 345.283 476.366 343.888C479.733 347 476.798 341.297 474.85 345.145C473.78 344.167 474.456 350.873 473.746 349.582C474.42 350.183 477.02 351.058 480.991 352.691C479.922 351.713 478.297 350.744 477.226 349.766C480.93 350.904 481.655 351.408 485.592 351.799C484.321 351.314 483.17 350.726 482.019 350.137C485.956 350.527 489.695 350.453 493.2 349.629C491.809 349.249 490.615 349.334 489.225 348.954C492.888 348.31 495.918 346.945 498.75 345.115C497.633 345.769 496.003 345.597 494.569 345.891C497.718 344.421 499.918 341.871 501.84 339.243C500.642 340.287 499.247 340.865 497.891 341.728C500.128 339.461 501.892 336.654 503.06 333.41C501.901 334.738 500.779 336.35 499.461 337.497C500.946 334.614 502.153 331.654 502.606 328.078C501.96 330.231 500.997 332.024 499.598 333.56C500.685 330.705 501.336 327.594 501.391 324.045C501.062 326.56 499.98 328.457 498.896 330.354C499.705 327.422 499.8 324.159 499.894 320.896C499.406 323.23 498.798 325.667 497.873 327.744C498.404 324.737 498.22 321.398 497.917 318.163C497.865 320.753 497.378 323.086 496.453 325.164C496.864 322.261 496.56 319.025 495.979 315.714C496.047 318.2 495.678 320.429 495.152 322.478C495.007 319.423 494.545 316.008 493.844 312.802C494.151 315.079 493.625 317.127 493.377 319.253C493.073 316.017 492.492 312.707 491.075 309.167C491.503 311.34 491.652 313.437 491.366 315.277C490.506 311.89 489.488 308.323 487.952 304.888C488.5 306.957 488.889 308.844 488.722 310.58Z" fill="#FFFBF5"/>
<path d="M475.701 337.507C476.211 340.771 476.813 343.987 477.952 347.264L478.222 347.123C478.073 345.93 478.083 344.818 478.039 343.735C478.335 344.741 478.639 345.742 478.959 346.738L486.901 315.689C486.042 313.199 494.827 316.813 493.628 314.354C494.18 315.998 492.793 310.651 492.983 312.207C491.3 308.12 494.87 317.369 492.445 313.67C493.006 315.032 491.64 307.955 491.953 309.447C489.414 305.532 491.164 311.781 493.508 308.687C494.316 309.92 494.75 303.367 495.187 304.795C494.675 304.032 492.478 302.458 489.168 299.774C489.976 301.007 491.284 302.391 492.093 303.625C488.946 301.487 488.374 300.801 484.902 299.306C485.967 300.129 486.909 301.016 487.85 301.903C484.378 300.407 481.011 299.409 477.739 299.189C478.927 299.946 480.012 300.207 481.2 300.965C477.814 300.529 474.884 300.957 472.058 301.883C473.162 301.583 474.598 302.211 475.93 302.342C472.877 302.836 470.507 304.627 468.376 306.569C469.612 305.922 470.954 305.773 472.305 305.342C469.945 306.852 467.928 309.011 466.376 311.754C467.622 310.826 468.879 309.618 470.239 308.906C468.46 311.217 466.918 313.679 465.956 316.941C466.87 315.084 468.012 313.658 469.506 312.601C468.088 314.999 467.021 317.764 466.421 321.114C467.107 318.822 468.372 317.333 469.638 315.843C468.458 318.393 467.867 321.46 467.277 324.529C468.076 322.455 469 320.317 470.152 318.611C469.209 321.311 468.856 324.531 468.627 327.686C469.074 325.245 469.874 323.171 471.026 321.464C470.207 324.1 469.978 327.256 469.986 330.563C470.31 328.185 470.986 326.177 471.776 324.383C471.433 327.323 471.318 330.694 471.45 333.936C471.527 331.688 472.317 329.895 472.869 327.95C472.64 331.106 472.648 334.412 473.37 338.175C473.323 335.991 473.515 333.96 474.057 332.296C474.303 335.755 474.663 339.43 475.509 343.127C475.338 341.008 475.282 339.106 475.701 337.507Z" fill="#FFFBF5"/>
<path d="M497.883 333.548C498.351 336.727 498.726 339.892 498.654 343.286L498.38 343.242C498.177 342.092 497.859 341.067 497.595 340.052C497.619 341.076 497.635 342.099 497.636 343.121L482.112 316.972C482.161 314.396 475.567 320.55 475.92 317.893C475.9 319.589 475.611 314.203 475.88 315.703C476.197 311.386 475.686 321.077 476.753 316.882C476.647 318.32 475.857 311.342 476.002 312.822C477.107 308.39 477.335 314.726 474.444 312.618C474.089 314.016 471.888 308.098 471.907 309.558C472.138 308.689 473.6 306.531 475.716 302.99C475.361 304.389 474.615 306.087 474.259 307.486C476.385 304.502 476.69 303.685 479.277 301.191C478.585 302.293 478.017 303.414 477.45 304.535C480.037 302.041 482.673 300.04 485.443 298.788C484.625 299.869 483.76 300.458 482.942 301.539C485.751 300.051 488.406 299.508 491.108 299.459C490.07 299.534 489.002 300.576 487.886 301.123C490.666 300.602 493.215 301.497 495.601 302.61C494.35 302.408 493.148 302.699 491.859 302.734C494.321 303.374 496.669 304.722 498.775 306.761C497.439 306.302 496.015 305.588 494.639 305.366C496.823 306.931 498.843 308.713 500.584 311.42C499.276 309.996 497.891 309.045 496.304 308.546C498.199 310.308 499.892 312.521 501.344 315.425C500.113 313.527 498.603 312.556 497.092 311.584C498.824 313.563 500.19 316.208 501.556 318.855C500.286 317.195 498.891 315.515 497.419 314.307C498.987 316.501 500.19 319.363 501.268 322.206C500.2 320.092 498.93 318.432 497.458 317.224C498.901 319.398 499.979 322.241 500.893 325.299C499.95 323.206 498.805 321.566 497.622 320.162C498.738 322.768 499.777 325.847 500.566 328.886C499.873 326.833 498.69 325.429 497.67 323.808C498.748 326.651 499.662 329.71 500.085 333.418C499.518 331.385 498.786 329.569 497.853 328.205C498.604 331.48 499.316 334.992 499.615 338.68C499.172 336.667 498.691 334.891 497.883 333.548Z" fill="#FFFBF5"/>
<path d="M483.618 362.569C483.618 362.569 483.618 369.583 481.27 377.182C478.922 384.781 466.595 386.535 466.595 386.535" stroke="#A09797" stroke-width="0.1"/>
<path d="M483.618 362.569C483.618 362.569 483.618 369.583 485.966 377.182C488.314 384.781 500.641 386.535 500.641 386.535" stroke="#A09797" stroke-width="0.1"/>
<path d="M518.739 346.786C518.739 349.619 515.913 351.947 512.382 351.947C508.85 351.947 506.024 349.619 506.024 346.786C506.024 343.954 508.85 341.626 512.382 341.626C515.913 341.626 518.739 343.954 518.739 346.786Z" fill="#FF8800" stroke="#E37A02" stroke-width="0.2"/>
<ellipse cx="454.267" cy="346.786" rx="1.17402" ry="2.92268" fill="#3A3A3A"/>
<ellipse cx="511.795" cy="346.786" rx="1.17403" ry="2.92268" fill="#3A3A3A"/>
<ellipse cx="481.857" cy="359.062" rx="0.587009" ry="1.16907" fill="#FF9398"/>
<ellipse cx="485.379" cy="359.062" rx="0.587009" ry="1.16907" fill="#FF9398"/>
<mask id="mask0" style="mask-type:alpha" maskUnits="userSpaceOnUse" x="0" y="0" width="523" height="376">
<path d="M522.441 0H0V279.525H93.6214C113.673 334.931 181.104 375.682 261.22 375.682C341.337 375.682 408.768 334.931 428.819 279.525H522.441V0Z" fill="white"/>
</mask>
<g mask="url(#mask0)">
<g filter="url(#filter0_i)">
<path d="M260.735 385.919C362.209 385.919 444.47 304.005 444.47 202.96C444.47 101.914 362.209 20 260.735 20C159.261 20 77 101.914 77 202.96C77 304.005 159.261 385.919 260.735 385.919Z" fill="#85C5E5"/>
<path d="M257.268 102.809C194.852 102.809 144.25 153.211 144.25 215.391V330.068C144.25 392.244 194.852 442.65 257.268 442.65C319.685 442.65 370.287 392.244 370.287 330.068V215.391C370.287 153.211 319.685 102.809 257.268 102.809Z" fill="#592D3D" stroke="#592D3D" stroke-width="12" stroke-miterlimit="10"/>
<path d="M297.952 308.34C332.049 308.34 325.001 351.093 325.328 398.636H297.952V308.34Z" fill="#FDD2B2"/>
<path d="M306.495 335.715L297.952 349.985L302.227 398.636H314.159C314.448 331.172 306.495 335.715 306.495 335.715Z" fill="#F3AB98"/>
<path d="M156.411 211.517C156.411 156.384 201.279 111.689 256.626 111.689C311.972 111.689 356.84 156.384 356.84 211.517C356.855 226.372 353.534 241.042 347.121 254.454C340.709 267.865 331.367 279.679 319.779 289.029C317.723 290.696 315.601 292.279 313.415 293.778C290.813 308.07 262.261 308.07 236.485 305.784C233.983 305.41 231.489 304.938 229.013 304.395C219.121 302.225 209.545 298.875 200.697 293.992C198.511 292.649 196.391 291.2 194.337 289.643C192.273 288.077 190.291 286.406 188.401 284.636C186.613 282.981 184.886 281.262 183.22 279.479C165.96 261.028 156.378 236.737 156.411 211.517V211.517Z" fill="#FDD2B2"/>
<path d="M170.071 261.845C170.334 262.294 170.593 262.743 170.864 263.184C171.025 263.454 171.194 263.716 171.364 263.985C171.611 264.386 171.859 264.786 172.115 265.179C172.295 265.463 172.491 265.74 172.663 266.017C172.911 266.392 173.159 266.766 173.415 267.14C173.606 267.424 173.79 267.709 174.001 267.993C174.249 268.368 174.497 268.712 174.752 269.071C174.955 269.359 175.165 269.644 175.372 269.932C175.579 270.22 175.876 270.624 176.123 270.968C176.371 271.313 176.556 271.541 176.773 271.825C176.991 272.11 177.288 272.499 177.551 272.836C177.814 273.173 177.998 273.401 178.224 273.682C178.449 273.962 178.753 274.34 179.02 274.666C179.287 274.992 179.482 275.224 179.715 275.5C179.948 275.777 180.256 276.144 180.53 276.462C180.805 276.78 181.007 277.012 181.248 277.286L182.082 278.221C182.326 278.494 182.574 278.76 182.833 279.03C183.156 279.381 183.483 279.729 183.81 280.074L184.265 280.553C184.749 281.054 185.238 281.556 185.734 282.05L185.831 282.151C186.316 282.63 186.808 283.105 187.3 283.577L187.894 284.138C188.251 284.471 188.608 284.804 188.968 285.133L189.404 285.53C189.78 285.882 190.189 286.226 190.584 286.57C191.811 287.636 193.063 288.657 194.341 289.635C196.392 291.192 198.512 292.642 200.701 293.984C209.548 298.849 219.11 302.217 229.017 304.388C231.492 304.93 233.987 305.398 236.489 305.776C252.305 307.18 269.174 307.715 285.058 304.624C259.8 297.217 138.506 253.709 214.849 120.757C213.828 121.225 212.821 121.708 211.821 122.209L211.6 122.318C211.141 122.546 210.683 122.782 210.228 123.021L209.853 123.22C208.44 123.968 207.043 124.743 205.671 125.551L205.333 125.749C204.897 126.008 204.465 126.27 204.033 126.535L203.706 126.737C202.364 127.573 201.043 128.438 199.743 129.331L199.337 129.612C198.928 129.896 198.526 130.18 198.124 130.469L197.876 130.644C197.057 131.241 196.248 131.844 195.449 132.456L195.216 132.635C194.84 132.927 194.465 133.227 194.089 133.53L193.649 133.882C193.274 134.185 192.898 134.488 192.522 134.798C191.73 135.453 190.948 136.127 190.178 136.808L189.75 137.182L188.739 138.099L188.251 138.541C187.179 139.539 186.131 140.558 185.106 141.598L184.588 142.126C184.291 142.433 183.994 142.74 183.701 143.05C183.528 143.234 183.355 143.425 183.186 143.604C182.67 144.153 182.162 144.71 181.661 145.273C181.492 145.464 181.319 145.648 181.15 145.85C180.883 146.153 180.62 146.46 180.357 146.767L179.79 147.436C179.535 147.74 179.279 148.043 179.039 148.35C178.836 148.597 178.633 148.847 178.434 149.098C178.032 149.596 177.638 150.094 177.247 150.595C177.044 150.857 176.841 151.119 176.642 151.385C176.443 151.65 176.191 151.98 175.969 152.283C175.748 152.586 175.567 152.825 175.372 153.099C175.177 153.372 174.948 153.679 174.741 153.971C174.385 154.47 174.035 154.975 173.689 155.486C173.501 155.759 173.313 156.04 173.129 156.317C172.945 156.594 172.716 156.938 172.513 157.253L171.953 158.117L171.322 159.131C171.161 159.39 170.999 159.648 170.841 159.906C170.507 160.452 170.184 161.003 169.861 161.553L169.402 162.361C169.2 162.717 168.997 163.076 168.798 163.435C168.647 163.708 168.497 163.981 168.351 164.255C168.11 164.7 167.873 165.149 167.637 165.598L167.186 166.474C166.945 166.953 166.705 167.428 166.468 167.911C166.344 168.169 166.217 168.431 166.093 168.693C165.897 169.101 165.717 169.513 165.518 169.924C165.401 170.171 165.289 170.418 165.176 170.673C164.898 171.289 164.626 171.913 164.361 172.544C164.278 172.739 164.199 172.937 164.117 173.132C163.917 173.607 163.722 174.082 163.53 174.561C163.429 174.812 163.331 175.063 163.234 175.31C163.046 175.781 162.858 176.256 162.689 176.732C162.61 176.938 162.531 177.143 162.456 177.349C162.221 178.005 161.989 178.662 161.761 179.318L161.551 179.954C161.385 180.453 161.224 180.952 161.066 181.451L160.841 182.166C160.664 182.742 160.491 183.318 160.326 183.898C160.288 184.022 160.251 184.145 160.217 184.273C160.022 184.961 159.834 185.652 159.653 186.346C159.593 186.567 159.541 186.791 159.484 187.012C159.353 187.532 159.225 188.052 159.109 188.576L158.951 189.231C158.789 189.942 158.631 190.653 158.485 191.368L158.429 191.656C158.301 192.293 158.176 192.929 158.053 193.565C158.012 193.793 157.974 194.018 157.933 194.246C157.835 194.804 157.741 195.369 157.655 195.93C157.625 196.121 157.591 196.304 157.565 196.499C157.452 197.229 157.35 197.962 157.253 198.699L157.196 199.186C157.121 199.781 157.054 200.38 156.99 200.979C156.967 201.203 156.941 201.428 156.918 201.656C156.858 202.285 156.802 202.917 156.749 203.55C156.749 203.681 156.727 203.808 156.719 203.924C156.664 204.672 156.615 205.427 156.573 206.188C156.573 206.386 156.573 206.588 156.546 206.787C156.521 207.376 156.499 207.963 156.479 208.549C156.479 208.77 156.479 208.991 156.479 209.212C156.479 209.979 156.449 210.75 156.449 211.521C156.449 211.521 156.449 211.547 156.449 211.558C156.449 212.389 156.449 213.212 156.479 214.036C156.479 214.32 156.501 214.605 156.509 214.889C156.528 215.439 156.546 215.989 156.573 216.539C156.573 216.872 156.614 217.202 156.633 217.535C156.663 218.033 156.689 218.53 156.727 219.032C156.753 219.406 156.787 219.739 156.817 220.091C156.858 220.562 156.896 221.034 156.945 221.502C156.978 221.876 157.024 222.228 157.061 222.591C157.114 223.044 157.163 223.5 157.219 223.953C157.264 224.327 157.317 224.701 157.365 225.057C157.426 225.499 157.486 225.944 157.553 226.386C157.61 226.76 157.67 227.134 157.73 227.508C157.797 227.942 157.869 228.38 157.944 228.814C158.012 229.189 158.079 229.563 158.151 229.937C158.229 230.367 158.312 230.798 158.395 231.224C158.477 231.651 158.549 231.973 158.628 232.347C158.718 232.774 158.808 233.197 158.906 233.62C159.003 234.042 159.071 234.368 159.161 234.716C159.259 235.139 159.364 235.558 159.469 235.974C159.574 236.389 159.653 236.703 159.747 237.063C159.86 237.482 159.973 237.897 160.089 238.313C160.187 238.687 160.288 239.031 160.393 239.387C160.514 239.802 160.638 240.214 160.769 240.625C160.901 241.037 160.987 241.333 161.1 241.688C161.212 242.044 161.363 242.508 161.498 242.916C161.633 243.324 161.731 243.615 161.851 243.964C161.994 244.371 162.137 244.779 162.283 245.187C162.407 245.528 162.527 245.872 162.659 246.213L163.125 247.436C163.256 247.769 163.384 248.106 163.5 248.439C163.666 248.847 163.835 249.259 164.004 249.667C164.139 249.989 164.271 250.314 164.41 250.636C164.586 251.055 164.785 251.467 164.954 251.882C165.093 252.189 165.229 252.5 165.368 252.807C165.563 253.241 165.77 253.667 165.969 254.094L166.374 254.955C166.604 255.426 166.84 255.89 167.077 256.358C167.197 256.594 167.31 256.834 167.434 257.069C168.155 258.469 168.907 259.85 169.688 261.212C169.797 261.388 169.936 261.616 170.071 261.845Z" fill="#F3AB98"/>
<path d="M156.411 211.517C156.411 156.384 201.279 111.689 256.626 111.689C311.972 111.689 356.84 156.384 356.84 211.517C356.855 226.372 353.534 241.042 347.121 254.454C340.709 267.865 331.367 279.679 319.779 289.029C317.723 290.696 315.601 292.279 313.415 293.778C290.813 308.07 262.261 308.07 236.485 305.784C233.983 305.41 231.489 304.938 229.013 304.395C219.121 302.225 209.545 298.875 200.697 293.992C198.511 292.649 196.391 291.2 194.337 289.643C192.273 288.077 190.291 286.406 188.401 284.636C186.613 282.981 184.886 281.262 183.22 279.479C165.96 261.028 156.378 236.737 156.411 211.517V211.517Z" stroke="#592D3D" stroke-width="12" stroke-miterlimit="10"/>
<path d="M213.842 308.34C179.741 308.34 186.793 351.093 186.466 398.636H213.842V308.34Z" fill="#FDD2B2"/>
<path d="M206.746 335.715L215.3 349.985L211.021 398.636H199.101C198.796 331.172 206.746 335.715 206.746 335.715Z" fill="#F3AB98"/>
<path d="M301.509 424.832H211.742C210.42 424.831 209.152 424.307 208.217 423.375C207.282 422.443 206.757 421.18 206.757 419.862V313.31C206.757 311.992 207.282 310.729 208.217 309.797C209.152 308.865 210.42 308.341 211.742 308.34H299.364C304.282 308.34 306.502 311.206 306.502 315.78V419.848C306.504 420.502 306.376 421.15 306.126 421.755C305.876 422.36 305.509 422.91 305.045 423.373C304.581 423.836 304.03 424.203 303.423 424.454C302.816 424.704 302.166 424.833 301.509 424.832V424.832Z" fill="#FDD2B2"/>
<path d="M305.108 311.296C304.734 310.837 304.417 310.335 304.165 309.799C303.263 309.095 302.19 308.642 301.055 308.486C300.495 308.399 299.93 308.357 299.364 308.358H211.742C210.423 308.359 209.158 308.881 208.224 309.809C207.289 310.737 206.762 311.995 206.757 313.31C217.652 317.209 238.048 319.387 256.626 319.387C280.317 319.387 295.84 315.888 305.108 311.296Z" fill="#F3AB98"/>
<path d="M297.952 308.34C332.049 308.34 325.001 351.093 325.328 398.636H306.495" stroke="#592D3D" stroke-width="12" stroke-miterlimit="10" stroke-linecap="square"/>
<path d="M213.842 308.34C179.741 308.34 186.793 351.093 186.466 398.636H205.277" stroke="#592D3D" stroke-width="12" stroke-miterlimit="10" stroke-linecap="square"/>
<path d="M211.743 308.377L299.364 308.34" stroke="#592D3D" stroke-width="12" stroke-miterlimit="10"/>
<path d="M211.742 424.832H255.555C214.549 424.832 217.645 338.316 206.757 338.316V419.848C206.755 420.501 206.883 421.149 207.132 421.753C207.382 422.358 207.749 422.907 208.212 423.37C208.675 423.833 209.225 424.201 209.831 424.452C210.437 424.703 211.086 424.832 211.742 424.832V424.832Z" fill="#F3AB98"/>
<path d="M204.503 346.561C204.432 345.187 204.462 343.814 204.522 342.444C204.582 341.074 204.698 339.693 204.845 338.327C204.92 337.639 204.995 336.954 205.089 336.265C205.183 335.577 205.273 334.892 205.408 334.203C205.675 332.778 206.128 331.394 206.757 330.087C207.386 331.394 207.839 332.778 208.106 334.203C208.241 334.892 208.339 335.577 208.425 336.265C208.512 336.954 208.594 337.639 208.669 338.327C208.812 339.701 208.925 341.074 208.989 342.444C209.053 343.814 209.083 345.191 209.011 346.561H204.503Z" fill="#592D3D"/>
<path d="M306.495 349.985V352.979C306.592 365.703 306.592 378.801 306.495 391.432C306.495 392.506 306.495 393.572 306.495 394.624V419.851C306.496 420.504 306.368 421.152 306.118 421.756C305.869 422.36 305.502 422.909 305.039 423.371C304.576 423.834 304.026 424.201 303.42 424.452C302.814 424.703 302.165 424.832 301.509 424.832H211.742C210.42 424.831 209.152 424.307 208.217 423.375C207.282 422.443 206.757 421.18 206.757 419.862V398.082C206.757 397.142 206.757 396.184 206.757 395.219C206.663 382.169 206.663 369.071 206.757 355.812V346.561" stroke="#592D3D" stroke-width="12" stroke-miterlimit="10"/>
<path d="M304.241 349.985C304.169 348.424 304.203 346.86 304.263 345.296C304.323 343.731 304.44 342.171 304.583 340.607C304.658 339.824 304.737 339.042 304.827 338.26C304.917 337.478 305.011 336.699 305.146 335.917C305.408 334.307 305.861 332.733 306.495 331.228C307.129 332.733 307.582 334.307 307.844 335.917C307.979 336.699 308.076 337.482 308.163 338.26C308.249 339.038 308.332 339.824 308.407 340.607C308.55 342.171 308.666 343.731 308.726 345.296C308.786 346.86 308.82 348.424 308.749 349.985H304.241Z" fill="#592D3D"/>
<path d="M283.179 339.675C283.262 336.138 287.77 334.641 290.025 336.887C290.391 337.259 290.68 337.7 290.875 338.184C291.071 338.667 291.168 339.185 291.163 339.706C291.157 340.228 291.049 340.743 290.844 341.223C290.638 341.702 290.34 342.137 289.966 342.502C289.592 342.867 289.15 343.155 288.664 343.349C288.178 343.544 287.659 343.641 287.136 343.636C286.612 343.631 286.095 343.523 285.613 343.318C285.132 343.114 284.695 342.817 284.329 342.444C283.963 342.081 283.673 341.649 283.476 341.174C283.279 340.699 283.178 340.189 283.179 339.675V339.675Z" fill="#592D3D"/>
<path d="M222.104 339.563C222.025 336.512 225.406 335.016 227.66 336.138C230.666 337.261 230.666 341.378 227.66 343.249C226.157 343.997 224.655 343.249 223.246 342.321C222.883 341.958 222.595 341.528 222.399 341.055C222.203 340.582 222.102 340.075 222.104 339.563V339.563Z" fill="#592D3D"/>
<path d="M256.626 335.678C256.895 336.383 257.084 337.116 257.189 337.863C257.301 338.587 257.363 339.317 257.373 340.049L257.486 344.424C257.52 345.88 257.565 347.339 257.58 348.799L257.644 353.166C257.73 358.993 257.727 364.827 257.749 370.658C257.772 376.488 257.817 382.319 257.749 388.15C257.715 391.065 257.636 393.98 257.55 396.896C257.512 398.351 257.441 399.811 257.298 401.267C257.171 402.738 256.948 404.199 256.633 405.642C256.318 404.199 256.096 402.738 255.968 401.267C255.826 399.811 255.754 398.351 255.717 396.896C255.63 393.98 255.551 391.065 255.518 388.15C255.442 382.319 255.518 376.488 255.518 370.658C255.518 364.827 255.518 359 255.585 353.17L255.649 348.791L255.773 344.42L255.897 340.049C255.911 339.317 255.974 338.587 256.085 337.863C256.183 337.117 256.365 336.384 256.626 335.678V335.678Z" fill="#F3AB98"/>
<path d="M228.532 354.85C229.089 354.586 229.679 354.398 230.287 354.289C230.867 354.18 231.455 354.118 232.045 354.102L235.557 353.978L242.583 353.825C247.264 353.754 251.941 353.735 256.626 353.724C261.311 353.713 265.992 353.664 270.673 353.724C273.014 353.757 275.354 353.836 277.698 353.922C278.867 353.963 280.039 354.034 281.207 354.173C282.394 354.304 283.568 354.527 284.72 354.839C283.569 355.153 282.394 355.375 281.207 355.501C280.039 355.644 278.867 355.715 277.698 355.752C275.354 355.838 273.014 355.913 270.673 355.947C265.992 356.018 261.311 355.947 256.626 355.947C251.941 355.947 247.26 355.947 242.575 355.891C240.235 355.868 237.894 355.793 235.557 355.703L232.045 355.576C231.456 355.56 230.869 355.498 230.29 355.389C229.683 355.288 229.092 355.107 228.532 354.85V354.85Z" fill="#F3AB98"/>
<path d="M234.99 366.593C235.434 366.383 235.908 366.243 236.395 366.178C236.845 366.115 237.301 366.096 237.755 366.122C238.653 366.159 239.551 366.182 240.449 366.201C242.245 366.242 244.04 366.257 245.836 366.264C249.454 366.264 253.008 366.294 256.641 366.186C260.274 366.077 263.877 366.025 267.491 366.04C269.298 366.04 271.105 366.088 272.908 366.129C273.816 366.142 274.723 366.2 275.624 366.305C276.551 366.407 277.466 366.599 278.356 366.878C277.487 367.218 276.586 367.469 275.666 367.626C274.77 367.787 273.865 367.895 272.957 367.948C271.146 368.079 269.335 368.191 267.528 368.255C263.907 368.39 260.289 368.375 256.678 368.424C254.871 368.424 253.068 368.506 251.238 368.461C249.409 368.416 247.598 368.412 245.784 368.345C243.969 368.278 242.147 368.128 240.336 367.941C239.427 367.84 238.525 367.727 237.62 367.604C237.163 367.548 236.713 367.443 236.279 367.29C235.812 367.132 235.377 366.897 234.99 366.593V366.593Z" fill="#F3AB98"/>
<path d="M324.513 363.375C324.588 349.491 324.058 337.152 321.605 327.677C317.818 318.19 311.018 312.531 299.018 312.531L307.603 362.855C307.603 362.855 316.06 366.706 324.513 363.375Z" fill="#F3AB98"/>
<path d="M327.743 359.427C327.316 359.778 326.851 360.082 326.357 360.332" stroke="#592D3D" stroke-width="12" stroke-miterlimit="10" stroke-linecap="square"/>
<path d="M192.383 327.276C189.821 336.845 189.378 349.405 189.476 363.577C196.952 366.777 208.422 362.772 208.422 362.772L214.925 313.268C203.331 313.268 196.418 318.47 192.383 327.276Z" fill="#F3AB98"/>
<path d="M300.454 308.13L286.012 308.167C286.012 328.271 257.712 349.76 257.712 349.76C257.712 349.76 227.356 327.089 227.356 308.167L212.832 308.13C211.509 308.13 210.241 308.653 209.305 309.584C208.37 310.516 207.844 311.779 207.843 313.096V419.638C207.844 420.955 208.37 422.218 209.305 423.15C210.241 424.081 211.509 424.604 212.832 424.604H302.595C303.917 424.604 305.185 424.081 306.12 423.149C307.055 422.218 307.58 420.955 307.58 419.638V315.555C307.58 310.997 305.371 308.13 300.454 308.13Z" fill="#633749"/>
<path d="M299.018 308.13C322.89 308.13 326.594 329.087 326.782 357.963C319.798 362.312 308.407 358.457 308.407 358.457L299.018 308.13Z" fill="#633749"/>
<path d="M307.58 335.506L299.018 349.76L303.297 398.411H307.655V358.884L314.147 359.966C312.036 332.957 307.58 335.506 307.58 335.506Z" fill="#5E3244"/>
<path d="M214.924 308.13C191.714 308.13 186.44 328.26 186.053 355.905C193.191 363.334 207.824 357.619 207.824 357.619L214.924 308.13Z" fill="#633749"/>
<path d="M207.832 335.506V357.619L201.328 359.229C203.459 333.006 207.832 335.506 207.832 335.506Z" fill="#5E3244"/>
<path d="M299.018 308.13C324.347 308.13 328.491 329.192 328.66 358.196C318.817 362.844 308.407 358.457 308.407 358.457" stroke="#592D3D" stroke-width="12" stroke-miterlimit="10" stroke-linecap="square"/>
<path d="M214.925 308.13C189.832 308.13 184.839 328.597 184.588 357.047C192.323 362.582 207.824 357.619 207.824 357.619" stroke="#592D3D" stroke-width="12" stroke-miterlimit="10" stroke-linecap="square"/>
<path d="M212.832 424.604H256.626C215.604 424.604 218.715 338.103 207.828 338.103V419.638C207.828 420.291 207.958 420.939 208.21 421.542C208.462 422.146 208.831 422.694 209.296 423.155C209.761 423.616 210.312 423.982 210.919 424.23C211.526 424.479 212.176 424.606 212.832 424.604Z" fill="#5E3244"/>
<path d="M205.589 346.351C205.517 344.978 205.547 343.6 205.611 342.235C205.675 340.869 205.788 339.488 205.931 338.118C206.006 337.433 206.085 336.744 206.175 336.056C206.265 335.367 206.359 334.682 206.494 333.998C206.76 332.572 207.213 331.188 207.843 329.881C208.472 331.188 208.926 332.572 209.192 333.998C209.327 334.682 209.424 335.371 209.511 336.056C209.597 336.741 209.68 337.433 209.755 338.118C209.9 339.495 210.008 340.867 210.078 342.235C210.138 343.608 210.168 344.985 210.078 346.351H205.589Z" fill="#592D3D"/>
<path d="M307.58 349.76V352.754C307.678 365.478 307.678 378.577 307.58 391.211C307.58 392.285 307.58 393.352 307.58 394.403V419.63C307.58 420.948 307.055 422.211 306.12 423.142C305.185 424.073 303.917 424.597 302.595 424.597H212.832C211.509 424.597 210.241 424.074 209.305 423.142C208.37 422.211 207.844 420.948 207.843 419.63V395.006C207.745 381.96 207.745 368.861 207.843 355.598V346.351" stroke="#592D3D" stroke-width="12" stroke-miterlimit="10"/>
<path d="M305.326 349.76C305.255 348.196 305.289 346.632 305.349 345.071C305.409 343.51 305.525 341.942 305.672 340.382C305.747 339.6 305.822 338.818 305.912 338.035C306.003 337.253 306.097 336.471 306.236 335.689C306.495 334.078 306.947 332.504 307.58 331C308.217 332.503 308.67 334.078 308.929 335.689C309.064 336.471 309.166 337.253 309.249 338.035C309.331 338.818 309.418 339.6 309.493 340.382C309.639 341.942 309.752 343.507 309.812 345.071C309.872 346.635 309.91 348.196 309.835 349.76H305.326Z" fill="#592D3D"/>
<path d="M212.832 308.168L300.454 308.13" stroke="#592D3D" stroke-width="12" stroke-miterlimit="10"/>
<path d="M185.516 358.196C185.944 358.582 186.407 358.928 186.899 359.229" stroke="#592D3D" stroke-width="12" stroke-miterlimit="10" stroke-linecap="square"/>
<path d="M323.344 354.524C322.562 354.987 321.704 355.307 320.808 355.467C319.916 355.641 319.009 355.721 318.1 355.707C317.195 355.691 316.293 355.593 315.406 355.415C314.963 355.333 314.527 355.202 314.095 355.089C313.663 354.977 313.238 354.797 312.825 354.625C313.28 354.625 313.723 354.689 314.163 354.726L315.485 354.835C315.924 354.835 316.36 354.91 316.8 354.914C317.239 354.917 317.675 354.955 318.111 354.958C318.983 354.977 319.854 354.958 320.741 354.891C321.616 354.829 322.486 354.706 323.344 354.524V354.524Z" fill="#592D3D"/>
<path d="M286.012 308.168C286.012 328.272 257.712 349.76 257.712 349.76C257.712 349.76 227.356 327.089 227.356 308.168" stroke="#592D3D" stroke-width="12" stroke-miterlimit="10"/>
<path d="M170.744 237.164C170.368 226.55 177.506 217.569 187.003 213.377C188.001 212.97 189.025 212.633 190.069 212.367C195.334 211.07 200.873 211.427 205.927 213.388C207.08 213.83 208.201 214.35 209.282 214.945C220.376 220.892 225.357 234.873 221.063 246.179C220.628 247.319 220.103 248.423 219.493 249.48C217.995 252.589 215.732 255.27 212.915 257.275C211.975 257.964 210.99 258.589 209.965 259.146C199.679 264.011 185.779 262.514 177.487 254.88C176.657 254.003 175.89 253.069 175.192 252.084C174.394 250.961 173.694 249.771 173.099 248.529C171.84 245.982 171.115 243.206 170.969 240.371C170.833 239.307 170.758 238.236 170.744 237.164V237.164Z" fill="#F3AB98"/>
<path d="M170.131 230.296C169.756 219.683 176.894 210.701 186.391 206.51C187.387 206.103 188.41 205.766 189.453 205.499C194.717 204.196 200.258 204.546 205.314 206.502C206.466 206.944 207.586 207.464 208.666 208.059C219.76 214.006 224.741 227.991 220.447 239.293C220.015 240.434 219.49 241.538 218.877 242.594C218.357 243.608 217.766 244.583 217.107 245.513C216.458 246.434 215.745 247.31 214.973 248.133C214.139 248.955 213.245 249.714 212.298 250.404C211.359 251.094 210.374 251.719 209.349 252.275C199.063 257.14 185.163 255.643 176.875 248.013C176.044 247.135 175.277 246.199 174.579 245.213C173.781 244.09 173.08 242.9 172.483 241.658C171.22 239.121 170.49 236.354 170.338 233.526C170.203 232.455 170.134 231.376 170.131 230.296V230.296Z" fill="white" stroke="#592D3D" stroke-width="3" stroke-miterlimit="10"/>
<path d="M195.956 235.105C198.496 235.105 200.555 233.055 200.555 230.525C200.555 227.995 198.496 225.944 195.956 225.944C193.416 225.944 191.358 227.995 191.358 230.525C191.358 233.055 193.416 235.105 195.956 235.105Z" fill="#592D3D"/>
<path d="M288.142 234.147C288.304 228.485 290.648 222.886 293.815 218.68C294.624 217.55 295.518 216.482 296.49 215.488C300.81 211.001 306.597 208.199 312.807 207.585C319.018 206.971 325.244 208.585 330.366 212.138C331.219 212.732 332.038 213.372 332.819 214.058C342.963 222.086 344.135 237.687 338.575 248.948C338.034 249.843 337.434 250.701 336.779 251.516C335.91 252.601 334.958 253.618 333.931 254.558C326.316 261.231 314.467 262.84 304.849 259.206C303.479 258.691 302.153 258.065 300.886 257.335C294.161 253.301 289.476 245.7 288.326 237.789C288.171 236.581 288.109 235.364 288.142 234.147V234.147Z" fill="#F3AB98"/>
<path d="M290.205 229.855C290.363 224.559 292.617 219.32 295.66 215.387C296.443 214.326 297.304 213.325 298.237 212.393C302.464 208.187 308.027 205.575 313.974 205.006C319.921 204.437 325.882 205.945 330.835 209.272C331.655 209.824 332.443 210.423 333.195 211.064C342.963 218.575 344.09 233.171 338.732 243.705C338.213 244.545 337.636 245.348 337.004 246.108C336.166 247.124 335.25 248.075 334.265 248.952C326.936 255.194 315.534 256.703 306.281 253.301C304.96 252.813 303.683 252.218 302.46 251.523C295.99 247.751 291.482 240.64 290.374 233.242C290.226 232.119 290.17 230.986 290.205 229.855V229.855Z" fill="white" stroke="#592D3D" stroke-width="3" stroke-miterlimit="10"/>
<path d="M316.439 235.105C318.979 235.105 321.038 233.055 321.038 230.525C321.038 227.995 318.979 225.944 316.439 225.944C313.899 225.944 311.841 227.995 311.841 230.525C311.841 233.055 313.899 235.105 316.439 235.105Z" fill="#592D3D"/>
<path fill-rule="evenodd" clip-rule="evenodd" d="M160.408 205.579C162.527 211.503 168.26 214.583 172.956 215.661C177.863 208.086 194.239 204.838 206.532 209.134C216.976 211.005 202.47 199.565 179.305 205.766C178.438 206.084 173.835 206.87 167.93 202.327C167.107 201.694 169.688 207.457 172.626 209.811C168.362 209.725 167.663 209.729 160.408 205.579Z" fill="#592D3D"/>
<path fill-rule="evenodd" clip-rule="evenodd" d="M339.732 209.807C342.67 207.468 345.251 201.705 344.428 202.322C338.522 206.865 333.909 206.064 333.052 205.761C309.887 199.549 295.378 211.001 305.822 209.129C318.119 204.833 334.495 208.082 339.401 215.656C344.097 214.578 349.83 211.498 351.949 205.574C344.695 209.728 343.996 209.724 339.732 209.807Z" fill="#592D3D"/>
<path d="M235.264 257.122C235.264 250.049 277.988 251.111 277.988 257.122C277.988 262.765 275.737 268.178 271.731 272.168C267.725 276.159 262.291 278.401 256.626 278.401C250.961 278.401 245.527 276.159 241.521 272.168C237.515 268.178 235.264 262.765 235.264 257.122V257.122Z" fill="#592D3D"/>
<path d="M254.747 265.033C248.38 264.659 242.827 267.559 240.979 271.852C244.052 275.086 248.067 277.278 252.457 278.12C256.847 278.961 261.392 278.409 265.451 276.541C266.295 276.153 267.112 275.709 267.897 275.212C267.551 269.932 261.908 265.475 254.747 265.033Z" fill="#F28195"/>
<path d="M235.264 257.122C235.264 250.049 277.988 251.111 277.988 257.122C277.988 262.765 275.737 268.178 271.731 272.168C267.725 276.159 262.291 278.401 256.626 278.401C250.961 278.401 245.527 276.159 241.521 272.168C237.515 268.178 235.264 262.765 235.264 257.122V257.122Z" stroke="#592D3D" stroke-width="6" stroke-miterlimit="10"/>
<path d="M248.406 261.089C248.575 261.047 248.642 261.029 248.751 261.01L249.033 260.958C249.217 260.924 249.409 260.905 249.582 260.89C249.942 260.854 250.305 260.841 250.667 260.853C251.402 260.869 252.132 260.97 252.843 261.156C254.331 261.531 255.68 262.324 256.731 263.439C257.72 264.498 258.382 265.818 258.64 267.241C258.874 268.554 258.696 269.907 258.129 271.114C257.351 270.018 256.754 269.034 256.13 268.21C255.849 267.816 255.542 267.441 255.209 267.088C254.906 266.778 254.565 266.506 254.195 266.279C253.494 265.861 252.712 265.594 251.9 265.497C251.473 265.442 251.044 265.412 250.615 265.407C250.393 265.407 250.171 265.407 249.954 265.426L249.634 265.448H249.488C249.45 265.448 249.375 265.448 249.401 265.448L248.406 261.089Z" fill="#592D3D"/>
<path d="M278.9 173.098C274.065 182.08 256.359 187.109 254.92 184.856C253.305 182.338 269.136 164.154 260.142 145.135" fill="#F3AB98"/>
<path d="M349.383 161.265C333.037 127.475 296.685 108.123 257.437 108.123C208.151 108.123 162.2 143.675 154.003 191.855C154.003 191.855 230.046 197.588 257.411 166.631C261.021 168.394 316.052 195.676 349.383 161.265Z" fill="#592D3D"/>
<path d="M257.438 111.652C250.885 112.096 244.374 113.013 237.954 114.395L233.191 115.536C231.613 115.959 230.05 116.423 228.48 116.865L223.825 118.362C222.288 118.908 220.77 119.485 219.241 120.061C213.162 122.44 207.275 125.281 201.633 128.56C195.973 131.881 190.544 135.58 185.384 139.63C189.998 134.878 195.139 130.665 200.709 127.07C206.283 123.44 212.217 120.392 218.419 117.973C219.985 117.411 221.544 116.828 223.115 116.285C224.708 115.802 226.286 115.274 227.886 114.825C229.486 114.376 231.109 114.006 232.729 113.624C234.348 113.242 235.99 112.965 237.613 112.677C244.157 111.56 250.812 111.216 257.438 111.652V111.652Z" fill="#592D3D"/>
<path d="M270.613 173.648C266.732 180.875 252.52 184.901 251.366 183.075C250.07 181.054 262.78 166.452 255.559 151.183" fill="#592D3D"/>
<path d="M159.003 194.426C159.003 194.426 228.72 197.524 256.63 167.481C254.751 174.786 250.712 180.238 251.449 181.387C252.535 183.083 265.725 179.359 269.542 172.649C286.658 179.759 318.937 188.116 346.99 166.627" stroke="#592D3D" stroke-width="12" stroke-miterlimit="10"/>
<path d="M294.529 196.761C298.678 195.707 302.88 194.877 307.118 194.272L306.119 194.403C311.07 193.752 316.09 193.561 321.052 194.224L320.053 194.089C321.282 194.261 322.51 194.463 323.742 194.62L322.743 194.486C326.483 194.996 330.183 195.76 333.818 196.772C335.697 197.292 337.989 196.125 338.439 194.153C338.685 193.195 338.548 192.181 338.057 191.322C337.567 190.463 336.761 189.828 335.81 189.549C331.546 188.386 327.203 187.538 322.814 187.012L323.814 187.147C319.669 186.414 315.453 186.169 311.251 186.417C307.072 186.69 302.917 187.259 298.819 188.12C296.708 188.543 294.612 189.029 292.523 189.542C290.614 190.01 289.284 192.259 289.893 194.145C290.173 195.093 290.81 195.896 291.672 196.384C292.534 196.873 293.553 197.009 294.514 196.765L294.529 196.761Z" fill="#592D3D"/>
<path d="M176.281 196.772C179.882 195.731 183.555 194.957 187.27 194.456L186.271 194.59C192.678 193.755 199.169 193.765 205.574 194.62L204.574 194.489C208.311 194.997 212.007 195.76 215.638 196.772C217.517 197.296 219.808 196.125 220.259 194.153C220.505 193.195 220.368 192.181 219.877 191.322C219.387 190.463 218.581 189.828 217.629 189.549C212.203 188.046 206.641 187.08 201.024 186.668C192.005 186.083 182.952 187.059 174.268 189.553C173.326 189.825 172.521 190.439 172.013 191.275C171.512 192.148 171.377 193.184 171.638 194.156C172.258 196.069 174.234 197.352 176.259 196.776L176.281 196.772Z" fill="#592D3D"/>
<path d="M251.787 81.651C262.82 81.651 271.765 72.741 271.765 61.75C271.765 50.7589 262.82 41.8489 251.787 41.8489C240.753 41.8489 231.808 50.7589 231.808 61.75C231.808 72.741 240.753 81.651 251.787 81.651Z" fill="#D67070"/>
<path d="M251.787 81.6511C254.762 81.6524 257.7 80.9916 260.386 79.717C263.072 78.4424 265.438 76.5862 267.311 74.284C269.185 71.9818 270.519 69.2918 271.215 66.4104C271.911 63.529 271.952 60.5291 271.336 57.6298C258.384 55.6305 244.953 56.7915 231.88 60.1447C231.838 60.6728 231.808 61.2051 231.808 61.7458C231.808 64.3596 232.324 66.9479 233.328 69.3629C234.332 71.7779 235.803 73.9723 237.658 75.8207C239.514 77.6691 241.716 79.1354 244.14 80.1358C246.565 81.1362 249.163 81.6511 251.787 81.6511V81.6511Z" fill="#C46565"/>
<path d="M251.787 81.651C262.82 81.651 271.765 72.741 271.765 61.75C271.765 50.7589 262.82 41.8489 251.787 41.8489C240.753 41.8489 231.808 50.7589 231.808 61.75C231.808 72.741 240.753 81.651 251.787 81.651Z" stroke="#592D3D" stroke-width="13.44" stroke-miterlimit="10"/>
<path d="M146.098 173.239C146.093 165.127 147.016 157.041 148.849 149.138C149.211 147.587 149.605 146.05 150.032 144.527C151.252 130.989 158.447 119.823 168.066 109.851C170.069 108.254 170.469 104.666 172.471 102.671C179.279 96.6901 185.284 90.7047 192.891 85.9055C224.121 65.9625 265.361 55.1947 298.593 73.5407C305.397 77.1286 313.004 79.1237 318.609 83.9103C329.423 93.0812 337.026 103.853 347.84 112.626C357.446 120.59 359.049 133.365 362.458 144.51C362.887 146.031 363.281 147.567 363.64 149.121C365.474 157.024 366.397 165.11 366.392 173.222L146.098 173.239Z" fill="#D67070"/>
<path d="M148.849 149.138C147.016 157.041 146.093 165.127 146.098 173.239H181.021C180.365 139.43 171.655 111.197 215.836 76.7806C184.144 88.764 155.266 115.082 148.849 149.138Z" fill="#C46565"/>
<path d="M153.638 130.482C151.696 134.943 150.479 139.684 150.032 144.527C149.605 146.047 149.211 147.584 148.849 149.138C147.016 157.041 146.093 165.127 146.098 173.239H230.273C248.141 171.862 266.09 171.862 283.959 173.239H366.392C366.397 165.127 365.474 157.041 363.64 149.138C363.278 147.587 362.884 146.05 362.458 144.527C361.002 139.761 359.87 134.702 358.309 129.857C290.19 104.75 221.306 105.282 153.638 130.482Z" fill="#C46565"/>
<path d="M146.098 173.239C146.093 165.127 147.016 157.041 148.849 149.138C149.211 147.587 149.605 146.05 150.032 144.527C151.252 130.989 158.447 119.823 168.066 109.851C170.069 108.254 170.469 104.666 172.471 102.671C179.279 96.6901 185.284 90.7047 192.891 85.9055C224.121 65.9625 265.361 55.1947 298.593 73.5407C305.397 77.1286 313.004 79.1237 318.609 83.9103C329.423 93.0812 337.026 103.853 347.84 112.626C357.446 120.59 359.049 133.365 362.458 144.51C362.887 146.031 363.281 147.567 363.64 149.121C365.474 157.024 366.397 165.11 366.392 173.222L146.098 173.239Z" stroke="#592D3D" stroke-width="13.44" stroke-miterlimit="10"/>
<path d="M139.824 145.282C217.002 112.588 295.989 112.144 373.747 145.282C381.123 148.425 381.081 203.908 373.747 201.367C297.811 175.033 217.502 174.752 139.824 201.367C130.584 204.532 131.484 148.815 139.824 145.282Z" fill="#D67070"/>
<path d="M361.141 181.865C361.489 183.222 361.68 184.614 361.709 186.014C361.747 187.385 361.662 188.747 361.599 190.113L361.448 192.155C361.38 192.834 361.313 193.513 361.229 194.188C361.061 195.541 360.855 196.887 360.56 198.216L357.249 197.625C357.434 196.296 357.669 194.98 357.939 193.664L358.359 191.689L358.78 189.719C359.091 188.408 359.357 187.091 359.714 185.779C360.068 184.434 360.545 183.123 361.141 181.865V181.865Z" fill="#592D3D"/>
<path d="M360.543 139.43C361.199 142.055 361.709 144.714 362.071 147.394C362.252 148.731 362.399 150.072 362.529 151.414C362.66 152.755 362.735 154.105 362.807 155.45C362.916 158.141 362.963 160.832 362.832 163.519C362.715 166.213 362.371 168.892 361.801 171.528C361.381 168.85 361.099 166.205 360.825 163.565C360.552 160.924 360.316 158.304 359.963 155.693C359.798 154.385 359.613 153.086 359.416 151.787C359.218 150.487 358.995 149.192 358.776 147.901C358.326 145.315 357.808 142.75 357.265 140.185L360.543 139.43Z" fill="#592D3D"/>
<path d="M326.406 130.85C329.587 148.819 329.23 168.36 326.406 188.999" stroke="#592D3D" stroke-width="8.96" stroke-miterlimit="10"/>
<path d="M296.704 124.819C298.871 142.8 298.627 162.353 296.704 183.009" stroke="#592D3D" stroke-width="8.96" stroke-miterlimit="10"/>
<path d="M269.631 145.298C270.139 148.165 270.472 151.06 270.629 153.966C270.797 156.858 270.848 159.751 270.902 162.647V166.989C270.902 168.435 270.902 169.881 270.852 171.327C270.789 174.219 270.683 177.112 270.486 179.999L267.12 179.832C267.212 176.952 267.359 174.077 267.515 171.202L268.024 162.58C268.218 159.704 268.369 156.825 268.592 153.945C268.815 151.066 269.143 148.186 269.631 145.298Z" fill="#592D3D"/>
<path d="M270.507 121.579C270.594 122.463 270.634 123.352 270.625 124.241C270.625 124.685 270.604 125.129 270.591 125.573L270.536 126.911C270.465 127.799 270.402 128.692 270.25 129.585C270.096 130.519 269.801 131.425 269.375 132.271C268.871 131.464 268.488 130.587 268.239 129.668C267.999 128.797 267.848 127.925 267.688 127.049L267.481 125.741C267.427 125.301 267.364 124.865 267.317 124.429C267.218 123.554 267.169 122.674 267.17 121.793L270.507 121.579Z" fill="#592D3D"/>
<path d="M241.823 121.483C241.97 139.506 241.953 159.067 241.823 179.744" stroke="#592D3D" stroke-width="8.96" stroke-miterlimit="10"/>
<path d="M214.734 124.22C213.867 142.243 213.964 161.83 214.734 182.527" stroke="#592D3D" stroke-width="8.96" stroke-miterlimit="10"/>
<path d="M185.275 160.044C185.779 162.367 186.16 164.715 186.416 167.077C186.681 169.42 186.874 171.759 187.11 174.098L187.745 181.11C187.943 183.445 188.137 185.784 188.271 188.127L184.905 188.395C184.661 186.044 184.514 183.684 184.409 181.324C184.354 180.142 184.325 178.96 184.291 177.778L184.249 174.232C184.249 171.868 184.27 169.5 184.396 167.136C184.516 164.754 184.81 162.384 185.275 160.044V160.044Z" fill="#592D3D"/>
<path d="M188.267 130.088C188.162 131.617 187.998 133.139 187.825 134.66L187.548 136.945L187.245 139.229C187.018 140.755 186.845 142.28 186.572 143.81C186.308 145.366 185.914 146.897 185.393 148.387C184.954 146.863 184.673 145.299 184.552 143.718C184.426 142.159 184.417 140.608 184.392 139.049V136.718C184.417 135.939 184.438 135.163 184.476 134.388C184.56 132.833 184.682 131.282 184.897 129.74L188.267 130.088Z" fill="#592D3D"/>
<path d="M156.449 138.584C153.562 156.607 153.886 176.244 156.449 196.971" stroke="#592D3D" stroke-width="8.96" stroke-miterlimit="10"/>
<path d="M361.873 178.038C362.185 178.038 362.49 177.946 362.749 177.773C363.009 177.6 363.211 177.355 363.33 177.068C363.45 176.78 363.481 176.464 363.42 176.159C363.359 175.854 363.209 175.574 362.988 175.355C362.768 175.135 362.486 174.985 362.18 174.924C361.874 174.864 361.557 174.895 361.269 175.014C360.98 175.133 360.734 175.334 360.561 175.593C360.387 175.851 360.295 176.155 360.295 176.466C360.3 176.881 360.468 177.278 360.763 177.571C361.058 177.865 361.456 178.032 361.873 178.038V178.038Z" fill="#592D3D"/>
<path d="M364.065 138.973C368.273 156.93 367.789 176.458 364.065 197.084" stroke="#C46565" stroke-width="8.96" stroke-miterlimit="10"/>
<path d="M331.548 130.012C334.729 147.981 334.371 167.521 331.548 188.164" stroke="#C46565" stroke-width="8.96" stroke-miterlimit="10"/>
<path d="M301.833 123.914C304 141.895 303.756 161.448 301.833 182.104" stroke="#C46565" stroke-width="8.96" stroke-miterlimit="10"/>
<path d="M273.927 120.716C275.08 138.705 274.954 158.275 273.927 178.943" stroke="#C46565" stroke-width="8.96" stroke-miterlimit="10"/>
<path d="M246.889 120.439C247.032 138.441 247.019 158.024 246.889 178.7" stroke="#C46565" stroke-width="8.96" stroke-miterlimit="10"/>
<path d="M219.766 123.109C218.899 141.132 218.996 160.719 219.766 181.416" stroke="#C46565" stroke-width="8.96" stroke-miterlimit="10"/>
<path d="M191.604 128.755C189.727 146.778 189.921 166.39 191.604 187.104" stroke="#C46565" stroke-width="8.96" stroke-miterlimit="10"/>
<path d="M161.447 137.406C158.561 155.429 158.885 175.066 161.447 195.793" stroke="#C46565" stroke-width="8.96" stroke-miterlimit="10"/>
<path d="M139.824 145.282C217.002 112.588 295.989 112.144 373.747 145.282C381.123 148.425 381.081 203.908 373.747 201.367C297.811 175.033 217.502 174.752 139.824 201.367C130.584 204.532 131.484 148.815 139.824 145.282Z" stroke="#592D3D" stroke-width="13.44" stroke-miterlimit="10"/>
<path d="M224.571 114.806C229.934 113.687 235.359 112.886 240.817 112.408C242.185 112.291 243.548 112.173 244.915 112.081L249.018 111.846C250.39 111.788 251.757 111.763 253.129 111.721L257.24 111.666C262.71 111.666 268.201 111.93 273.65 112.437C279.108 112.922 284.532 113.734 289.892 114.868C284.422 114.747 278.952 114.537 273.532 114.395C268.112 114.252 262.659 114.189 257.227 114.177H253.154C251.795 114.177 250.436 114.227 249.077 114.223L245.004 114.282C243.645 114.328 242.286 114.349 240.922 114.365C235.494 114.504 230.05 114.697 224.571 114.806Z" fill="#592D3D"/>
<path d="M195.577 101.132C198.552 98.7624 201.7 96.6147 204.993 94.707C208.267 92.7705 211.646 91.0017 215.092 89.4006C215.933 88.9814 216.83 88.621 217.701 88.2354C218.572 87.8498 219.438 87.4558 220.326 87.1162C222.102 86.4247 223.861 85.6995 225.67 85.1043C229.256 83.8298 232.918 82.7799 236.635 81.9608C235.764 82.3422 234.885 82.7068 234.006 83.0631C233.126 83.4194 232.242 83.7505 231.376 84.1361C229.629 84.8654 227.879 85.5696 226.146 86.3241L224.845 86.8815C224.425 87.0618 223.97 87.2378 223.541 87.4348L220.953 88.5791C220.086 88.9479 219.232 89.3461 218.37 89.7317C217.507 90.1173 216.649 90.503 215.803 90.9179L213.236 92.1041C212.395 92.5232 211.553 92.9424 210.691 93.3615C209.008 94.1747 207.324 95.0381 205.62 95.8764C202.258 97.5614 198.909 99.3092 195.577 101.132Z" fill="white"/>
<path opacity="0.2" d="M195.411 265.201C214.772 265.201 230.467 249.567 230.467 230.281C230.467 210.995 214.772 195.361 195.411 195.361C176.051 195.361 160.356 210.995 160.356 230.281C160.356 249.567 176.051 265.201 195.411 265.201Z" fill="white"/>
<path opacity="0.15" d="M348.47 251.493C343.917 258.134 337.398 263.195 329.821 265.97C322.244 268.746 313.987 269.098 306.2 266.977C298.412 264.856 291.483 260.368 286.378 254.139C281.272 247.909 278.245 240.248 277.717 232.224C263.817 226.76 249.755 226.808 234.817 232.37C234.124 242.127 229.748 251.261 222.569 257.935C215.391 264.61 205.941 268.329 196.121 268.345C183.919 268.345 167.569 254.685 169.448 257.72C174.707 265.463 187.105 271.361 196.7 271.361C217.194 271.361 233.469 256.658 234.855 236.587C249.792 231.03 263.869 230.974 277.755 236.441C279.069 256.583 295.934 271.444 316.477 271.444C333.266 271.444 342.809 258.671 348.47 251.493Z" fill="black"/>
<path opacity="0.4" d="M189.002 267.185L235.238 221.124C234.222 218.841 232.962 216.675 231.481 214.661L182.51 263.446C184.533 264.921 186.71 266.174 189.002 267.185Z" fill="white"/>
<path d="M196.103 264.606C215.463 264.606 231.158 248.972 231.158 229.686C231.158 210.4 215.463 194.766 196.103 194.766C176.742 194.766 161.047 210.4 161.047 229.686C161.047 248.972 176.742 264.606 196.103 264.606Z" stroke="#592D3D" stroke-width="8" stroke-miterlimit="10"/>
<path d="M316.439 264.606C335.8 264.606 351.495 248.972 351.495 229.686C351.495 210.4 335.8 194.766 316.439 194.766C297.079 194.766 281.384 210.4 281.384 229.686C281.384 248.972 297.079 264.606 316.439 264.606Z" stroke="#592D3D" stroke-width="10" stroke-miterlimit="10"/>
<path d="M231.368 229.686C248.349 222.834 265.034 222.576 281.387 229.686" stroke="#592D3D" stroke-width="10" stroke-miterlimit="10"/>
<path d="M187.011 208.71C187.785 211.143 184.779 213.014 182.525 213.388C180.271 213.388 178.768 211.891 178.017 210.02C177.641 208.149 178.017 206.278 179.52 205.155C181.398 204.407 184.028 203.658 185.7 205.578C186.117 205.986 186.448 206.474 186.674 207.012C186.899 207.55 187.013 208.127 187.011 208.71Z" fill="white"/>
<path d="M191.019 207.277C190.79 208.897 188.536 208.897 188.16 207.4C188.16 206.278 188.536 205.904 189.607 205.866C189.793 205.866 189.977 205.903 190.148 205.974C190.32 206.045 190.476 206.148 190.607 206.28C190.738 206.411 190.842 206.566 190.913 206.737C190.984 206.908 191.02 207.092 191.019 207.277V207.277Z" fill="white"/>
<path opacity="0.2" d="M316.01 258.714C332.198 258.97 345.528 246.12 345.785 230.013C346.041 213.906 333.127 200.641 316.939 200.385C300.751 200.13 287.421 212.98 287.164 229.087C286.908 245.194 299.822 258.459 316.01 258.714Z" fill="white"/>
<path opacity="0.4" d="M311.172 264.213L351.1 224.436C350.884 223.019 350.581 221.617 350.195 220.237L306.968 263.312C308.35 263.697 309.753 263.998 311.172 264.213V264.213Z" fill="white"/>
<path d="M316.393 263.678C335.754 263.678 351.449 248.044 351.449 228.758C351.449 209.472 335.754 193.838 316.393 193.838C297.033 193.838 281.338 209.472 281.338 228.758C281.338 248.044 297.033 263.678 316.393 263.678Z" stroke="#592D3D" stroke-width="8" stroke-miterlimit="10"/>
<path d="M307.344 208.71C308.118 211.143 305.112 213.014 302.858 213.388C300.604 213.388 299.101 211.891 298.35 210.02C297.974 208.149 298.35 206.278 299.852 205.155C301.731 204.407 304.361 203.658 306.033 205.578C306.449 205.987 306.78 206.475 307.005 207.012C307.23 207.55 307.345 208.128 307.344 208.71V208.71Z" fill="white"/>
<path d="M311.36 207.277C311.131 208.897 308.876 208.897 308.501 207.4C308.501 206.278 308.876 205.904 309.943 205.866C310.319 205.866 310.679 206.015 310.945 206.279C311.211 206.544 311.36 206.903 311.36 207.277Z" fill="white"/>
</g>
</g>
<defs>
<filter id="filter0_i" x="77" y="20" width="367.47" height="432.65" filterUnits="userSpaceOnUse" color-interpolation-filters="sRGB">
<feFlood flood-opacity="0" result="BackgroundImageFix"/>
<feBlend mode="normal" in="SourceGraphic" in2="BackgroundImageFix" result="shape"/>
<feColorMatrix in="SourceAlpha" type="matrix" values="0 0 0 0 0 0 0 0 0 0 0 0 0 0 0 0 0 0 127 0" result="hardAlpha"/>
<feOffset dy="4"/>
<feGaussianBlur stdDeviation="2"/>
<feComposite in2="hardAlpha" operator="arithmetic" k2="-1" k3="1"/>
<feColorMatrix type="matrix" values="0 0 0 0 0 0 0 0 0 0 0 0 0 0 0 0 0 0 0.25 0"/>
<feBlend mode="normal" in2="shape" result="effect1_innerShadow"/>
</filter>
</defs>
</svg>
