<svg width="1367" height="163" viewBox="0 0 1367 163" fill="none" xmlns="http://www.w3.org/2000/svg">
<g filter="url(#filter0_d_304:22)">
<mask id="mask0_304:22" style="mask-type:alpha" maskUnits="userSpaceOnUse" x="0" y="0" width="1367" height="163">
<rect width="1367" height="163" fill="#C4C4C4"/>
</mask>
<g mask="url(#mask0_304:22)">
<g filter="url(#filter1_i_304:22)">
<path d="M337.5 3.00015C135.115 -3.67556 -9 49.602 -9 49.602V178H1368C1368 178 1453.5 3.0003 1368 3.0002C1282.5 3.00011 1179.96 81.3552 1032.5 96.4823C822.603 118.014 550.147 10.0144 337.5 3.00015Z" fill="#A7D7EB"/>
<path d="M337.5 3.00015C135.115 -3.67556 -9 49.602 -9 49.602V178H1368C1368 178 1453.5 3.0003 1368 3.0002C1282.5 3.00011 1179.96 81.3552 1032.5 96.4823C822.603 118.014 550.147 10.0144 337.5 3.00015Z" stroke="#A7D7EB"/>
</g>
</g>
</g>
<defs>
<filter id="filter0_d_304:22" x="-4" y="2.42139" width="1375" height="168.579" filterUnits="userSpaceOnUse" color-interpolation-filters="sRGB">
<feFlood flood-opacity="0" result="BackgroundImageFix"/>
<feColorMatrix in="SourceAlpha" type="matrix" values="0 0 0 0 0 0 0 0 0 0 0 0 0 0 0 0 0 0 127 0" result="hardAlpha"/>
<feOffset dy="4"/>
<feGaussianBlur stdDeviation="2"/>
<feComposite in2="hardAlpha" operator="out"/>
<feColorMatrix type="matrix" values="0 0 0 0 0 0 0 0 0 0 0 0 0 0 0 0 0 0 0.25 0"/>
<feBlend mode="normal" in2="BackgroundImageFix" result="effect1_dropShadow_304:22"/>
<feBlend mode="normal" in="SourceGraphic" in2="effect1_dropShadow_304:22" result="shape"/>
</filter>
<filter id="filter1_i_304:22" x="-9" y="2.42139" width="1415" height="179.579" filterUnits="userSpaceOnUse" color-interpolation-filters="sRGB">
<feFlood flood-opacity="0" result="BackgroundImageFix"/>
<feBlend mode="normal" in="SourceGraphic" in2="BackgroundImageFix" result="shape"/>
<feColorMatrix in="SourceAlpha" type="matrix" values="0 0 0 0 0 0 0 0 0 0 0 0 0 0 0 0 0 0 127 0" result="hardAlpha"/>
<feOffset dy="4"/>
<feGaussianBlur stdDeviation="2"/>
<feComposite in2="hardAlpha" operator="arithmetic" k2="-1" k3="1"/>
<feColorMatrix type="matrix" values="0 0 0 0 0 0 0 0 0 0 0 0 0 0 0 0 0 0 0.25 0"/>
<feBlend mode="normal" in2="shape" result="effect1_innerShadow_304:22"/>
</filter>
</defs>
</svg>
